<?xml version="1.0" encoding="UTF-8" standalone="no"?>
<svg
   xmlns:dc="http://purl.org/dc/elements/1.1/"
   xmlns:cc="http://creativecommons.org/ns#"
   xmlns:rdf="http://www.w3.org/1999/02/22-rdf-syntax-ns#"
   xmlns:svg="http://www.w3.org/2000/svg"
   xmlns="http://www.w3.org/2000/svg"
   xmlns:sodipodi="http://sodipodi.sourceforge.net/DTD/sodipodi-0.dtd"
   xmlns:inkscape="http://www.inkscape.org/namespaces/inkscape"
   width="297mm"
   height="210mm"
   viewBox="0 0 297 210"
   version="1.1"
   id="svg8"
   sodipodi:docname="bcpath.svg"
   inkscape:version="1.0.2 (394de47547, 2021-03-26)">
  <sodipodi:namedview
     pagecolor="#ffffff"
     bordercolor="#666666"
     borderopacity="1"
     objecttolerance="10"
     gridtolerance="10"
     guidetolerance="10"
     inkscape:pageopacity="0"
     inkscape:pageshadow="2"
     inkscape:window-width="1294"
     inkscape:window-height="704"
     id="namedview100"
     showgrid="false"
     inkscape:zoom="0.64633929"
     inkscape:cx="253.37201"
     inkscape:cy="396.85039"
     inkscape:window-x="66"
     inkscape:window-y="27"
     inkscape:window-maximized="1"
     inkscape:current-layer="layer1" />
  <defs
     id="defs2" />
  <metadata
     id="metadata5">
    <rdf:RDF>
      <cc:Work
         rdf:about="">
        <dc:format>image/svg+xml</dc:format>
        <dc:type
           rdf:resource="http://purl.org/dc/dcmitype/StillImage" />
        <dc:title></dc:title>
      </cc:Work>
    </rdf:RDF>
  </metadata>
  <g
     id="layer1"
     style="display:inline">
    <path
       style="font-variation-settings:normal;opacity:1;vector-effect:none;fill:none;fill-opacity:1;stroke:#a6036d;stroke-width:0.264614px;stroke-linecap:butt;stroke-linejoin:miter;stroke-miterlimit:4;stroke-dasharray:none;stroke-dashoffset:0;stroke-opacity:0.19086523;stop-color:#000000;stop-opacity:1"
       d="m 168.3419,209.48183 c 0,0 18.11902,-27.34033 30.91444,-37.0988 8.05327,-6.14185 19.99418,-5.94442 27.64975,-12.57673 7.48604,-6.48545 7.73129,-19.64196 16.04351,-25.02452 8.22476,-5.32593 20.09631,-0.38996 29.06243,-4.33774 9.8379,-4.33162 24.96905,-20.68431 24.96905,-20.68431 l -2.4e-4,1.69892 c 0,0 -13.97654,14.36547 -23.47761,19.19257 -9.06023,4.60314 -21.70371,-0.51762 -30.29152,4.91836 -8.25131,5.22297 -8.18666,18.25418 -15.59418,24.62047 -7.92574,6.81167 -19.24566,6.5018 -27.73655,12.59232 -12.94277,9.28387 -31.53908,36.69946 -31.53908,36.69946 z"
       id="path12" />
    <path
       style="font-variation-settings:normal;opacity:1;vector-effect:none;fill:none;fill-opacity:1;stroke:#a6036d;stroke-width:0.264614px;stroke-linecap:butt;stroke-linejoin:miter;stroke-miterlimit:4;stroke-dasharray:none;stroke-dashoffset:0;stroke-opacity:0.19086523;stop-color:#000000;stop-opacity:1"
       d="m 168.87076,211.07066 c 0,0 18.11902,-27.34034 30.91444,-37.0988 8.05326,-6.14185 19.99418,-5.94442 27.64974,-12.57674 7.48605,-6.48545 7.7313,-19.64194 16.04352,-25.0245 8.22476,-5.32594 20.09631,-0.38998 29.06243,-4.33775 9.8379,-4.33163 24.96904,-20.68432 24.96904,-20.68432 l -2.3e-4,1.69893 c 0,0 -13.97654,14.36547 -23.47761,19.19256 -9.06024,4.60314 -21.70371,-0.51761 -30.29152,4.91836 -8.25131,5.22299 -8.18666,18.25418 -15.59419,24.62047 -7.92573,6.81168 -19.24566,6.5018 -27.73655,12.59233 -12.94276,9.28386 -31.53907,36.69946 -31.53907,36.69946 z"
       id="path14" />
    <path
       style="font-variation-settings:normal;opacity:1;vector-effect:none;fill:none;fill-opacity:1;stroke:#a6036d;stroke-width:0.264614px;stroke-linecap:butt;stroke-linejoin:miter;stroke-miterlimit:4;stroke-dasharray:none;stroke-dashoffset:0;stroke-opacity:0.19086523;stop-color:#000000;stop-opacity:1"
       d="m 169.39961,212.65948 c 0,0 18.11903,-27.34033 30.91444,-37.0988 8.05327,-6.14184 19.99419,-5.94441 27.64975,-12.57672 7.48604,-6.48547 7.7313,-19.64196 16.04351,-25.02452 8.22477,-5.32594 20.09632,-0.38998 29.06244,-4.33775 9.8379,-4.33161 24.96904,-20.68432 24.96904,-20.68432 l -2.3e-4,1.69893 c 0,0 -13.97654,14.36547 -23.47762,19.19258 -9.06023,4.60313 -21.7037,-0.51762 -30.29151,4.91835 -8.25131,5.22298 -8.18666,18.25417 -15.59419,24.62047 -7.92573,6.81168 -19.24566,6.50179 -27.73655,12.59232 -12.94276,9.28388 -31.53908,36.69946 -31.53908,36.69946 z"
       id="path16" />
    <path
       style="font-variation-settings:normal;opacity:1;vector-effect:none;fill:none;fill-opacity:1;stroke:#a6036d;stroke-width:0.264614px;stroke-linecap:butt;stroke-linejoin:miter;stroke-miterlimit:4;stroke-dasharray:none;stroke-dashoffset:0;stroke-opacity:0.19086523;stop-color:#000000;stop-opacity:1"
       d="m 169.92847,214.24831 c 0,0 18.11903,-27.34034 30.91444,-37.0988 8.05327,-6.14185 19.99419,-5.94442 27.64975,-12.57673 7.48604,-6.48545 7.7313,-19.64196 16.04351,-25.02452 8.22477,-5.32593 20.09632,-0.38996 29.06243,-4.33774 9.83791,-4.33162 24.96905,-20.68432 24.96905,-20.68432 l -2.3e-4,1.69893 c 0,0 -13.97655,14.36548 -23.47762,19.19257 -9.06023,4.60314 -21.7037,-0.51762 -30.29151,4.91836 -8.25131,5.22297 -8.18666,18.25417 -15.59419,24.62047 -7.92574,6.81167 -19.24566,6.5018 -27.73655,12.59232 -12.94277,9.28387 -31.53908,36.69946 -31.53908,36.69946 z"
       id="path18" />
    <path
       style="font-variation-settings:normal;opacity:1;vector-effect:none;fill:none;fill-opacity:1;stroke:#a6036d;stroke-width:0.264614px;stroke-linecap:butt;stroke-linejoin:miter;stroke-miterlimit:4;stroke-dasharray:none;stroke-dashoffset:0;stroke-opacity:0.19086523;stop-color:#000000;stop-opacity:1"
       d="m 170.45733,215.83714 c 0,0 18.11902,-27.34034 30.91444,-37.09881 8.05326,-6.14184 19.99418,-5.94441 27.64974,-12.57673 7.48605,-6.48545 7.7313,-19.64196 16.04352,-25.0245 8.22476,-5.32594 20.09631,-0.38998 29.06243,-4.33775 9.8379,-4.33163 24.96904,-20.68432 24.96904,-20.68432 l -2.3e-4,1.69893 c 0,0 -13.97654,14.36547 -23.47761,19.19256 -9.06023,4.60314 -21.70371,-0.51761 -30.29152,4.91836 -8.25131,5.22299 -8.18666,18.25418 -15.59418,24.62047 -7.92574,6.81168 -19.24566,6.5018 -27.73655,12.59233 -12.94277,9.28386 -31.53908,36.69946 -31.53908,36.69946 z"
       id="path20" />
    <path
       style="font-variation-settings:normal;opacity:1;vector-effect:none;fill:none;fill-opacity:1;stroke:#a6036d;stroke-width:0.264614px;stroke-linecap:butt;stroke-linejoin:miter;stroke-miterlimit:4;stroke-dasharray:none;stroke-dashoffset:0;stroke-opacity:0.19086523;stop-color:#000000;stop-opacity:1"
       d="m 170.98619,217.42596 c 0,0 18.11902,-27.34033 30.91443,-37.09879 8.05327,-6.14186 19.99419,-5.94442 27.64975,-12.57674 7.48604,-6.48546 7.7313,-19.64195 16.04351,-25.02451 8.22477,-5.32594 20.09632,-0.38998 29.06244,-4.33775 9.8379,-4.33161 24.96904,-20.68432 24.96904,-20.68432 l -2.3e-4,1.69893 c 0,0 -13.97654,14.36547 -23.47761,19.19258 -9.06024,4.60312 -21.70371,-0.51762 -30.29152,4.91835 -8.25131,5.22298 -8.18666,18.25417 -15.59419,24.62047 -7.92573,6.81168 -19.24566,6.50179 -27.73655,12.59232 -12.94276,9.28388 -31.53907,36.69946 -31.53907,36.69946 z"
       id="path22" />
    <path
       style="font-variation-settings:normal;opacity:1;vector-effect:none;fill:none;fill-opacity:1;stroke:#a6036d;stroke-width:0.264614px;stroke-linecap:butt;stroke-linejoin:miter;stroke-miterlimit:4;stroke-dasharray:none;stroke-dashoffset:0;stroke-opacity:0.19086523;stop-color:#000000;stop-opacity:1"
       d="m 171.51504,219.01478 c 0,0 18.11903,-27.34033 30.91444,-37.09879 8.05327,-6.14185 19.99419,-5.94442 27.64975,-12.57673 7.48604,-6.48545 7.7313,-19.64196 16.04351,-25.02452 8.22477,-5.32593 20.09632,-0.38996 29.06244,-4.33775 9.8379,-4.33161 24.96904,-20.68431 24.96904,-20.68431 l -2.3e-4,1.69893 c 0,0 -13.97655,14.36548 -23.47762,19.19257 -9.06023,4.60314 -21.7037,-0.51762 -30.29151,4.91836 -8.25131,5.22297 -8.18666,18.25417 -15.59419,24.62047 -7.92573,6.81167 -19.24566,6.5018 -27.73655,12.59232 -12.94276,9.28387 -31.53908,36.69945 -31.53908,36.69945 z"
       id="path24" />
    <path
       style="font-variation-settings:normal;opacity:1;vector-effect:none;fill:none;fill-opacity:1;stroke:#a6036d;stroke-width:0.264614px;stroke-linecap:butt;stroke-linejoin:miter;stroke-miterlimit:4;stroke-dasharray:none;stroke-dashoffset:0;stroke-opacity:0.19086523;stop-color:#000000;stop-opacity:1"
       d="m 172.0439,220.60362 c 0,0 18.11903,-27.34034 30.91444,-37.09881 8.05327,-6.14184 19.99418,-5.94441 27.64975,-12.57673 7.48604,-6.48545 7.7313,-19.64196 16.04351,-25.0245 8.22476,-5.32594 20.09631,-0.38998 29.06243,-4.33775 9.8379,-4.33163 24.96905,-20.68432 24.96905,-20.68432 l -2.3e-4,1.69893 c 0,0 -13.97655,14.36547 -23.47762,19.19256 -9.06023,4.60314 -21.70371,-0.51761 -30.29152,4.91836 -8.25131,5.22299 -8.18665,18.25418 -15.59418,24.62047 -7.92574,6.81167 -19.24566,6.5018 -27.73655,12.59233 -12.94277,9.28386 -31.53908,36.69946 -31.53908,36.69946 z"
       id="path26" />
    <path
       style="font-variation-settings:normal;opacity:1;vector-effect:none;fill:none;fill-opacity:1;stroke:#a6036d;stroke-width:0.264614px;stroke-linecap:butt;stroke-linejoin:miter;stroke-miterlimit:4;stroke-dasharray:none;stroke-dashoffset:0;stroke-opacity:0.19086523;stop-color:#000000;stop-opacity:1"
       d="m 172.57276,222.19244 c 0,0 18.11902,-27.34033 30.91444,-37.09879 8.05326,-6.14186 19.99418,-5.94442 27.64974,-12.57674 7.48605,-6.48546 7.7313,-19.64195 16.04352,-25.02451 8.22476,-5.32594 20.09631,-0.38998 29.06243,-4.33775 9.8379,-4.33161 24.96904,-20.68432 24.96904,-20.68432 l -2.3e-4,1.69893 c 0,0 -13.97654,14.36547 -23.47761,19.19258 -9.06023,4.60312 -21.70371,-0.51762 -30.29152,4.91835 -8.25131,5.22298 -8.18666,18.25417 -15.59419,24.62047 -7.92573,6.81168 -19.24565,6.50179 -27.73654,12.59232 -12.94277,9.28388 -31.53908,36.69946 -31.53908,36.69946 z"
       id="path28" />
    <path
       style="font-variation-settings:normal;opacity:1;vector-effect:none;fill:none;fill-opacity:1;stroke:#a6036d;stroke-width:0.264614px;stroke-linecap:butt;stroke-linejoin:miter;stroke-miterlimit:4;stroke-dasharray:none;stroke-dashoffset:0;stroke-opacity:0.19086523;stop-color:#000000;stop-opacity:1"
       d="m 173.10162,223.78126 c 0,0 18.11902,-27.34033 30.91443,-37.09879 8.05327,-6.14185 19.99419,-5.94442 27.64975,-12.57673 7.48604,-6.48545 7.7313,-19.64196 16.04351,-25.02452 8.22477,-5.32593 20.09632,-0.38998 29.06244,-4.33775 9.8379,-4.33161 24.96904,-20.68431 24.96904,-20.68431 l -2.3e-4,1.69892 c 0,0 -13.97654,14.36549 -23.47762,19.19258 -9.06023,4.60314 -21.7037,-0.51762 -30.29151,4.91836 -8.25131,5.22297 -8.18666,18.25417 -15.59419,24.62047 -7.92573,6.81167 -19.24566,6.50179 -27.73655,12.59232 -12.94276,9.28387 -31.53907,36.69945 -31.53907,36.69945 z"
       id="path30" />
    <path
       style="font-variation-settings:normal;opacity:1;vector-effect:none;fill:none;fill-opacity:1;stroke:#a6036d;stroke-width:0.264614px;stroke-linecap:butt;stroke-linejoin:miter;stroke-miterlimit:4;stroke-dasharray:none;stroke-dashoffset:0;stroke-opacity:0.19086523;stop-color:#000000;stop-opacity:1"
       d="m 173.63047,225.3701 c 0,0 18.11903,-27.34034 30.91444,-37.09881 8.05327,-6.14184 19.99419,-5.94441 27.64975,-12.57673 7.48604,-6.48545 7.7313,-19.64196 16.04351,-25.02452 8.22477,-5.32592 20.09632,-0.38996 29.06243,-4.33773 9.83791,-4.33163 24.96905,-20.68432 24.96905,-20.68432 l -2.3e-4,1.69893 c 0,0 -13.97655,14.36547 -23.47762,19.19256 -9.06023,4.60314 -21.7037,-0.51761 -30.29151,4.91836 -8.25131,5.22299 -8.18666,18.25418 -15.59419,24.62047 -7.92573,6.81167 -19.24566,6.5018 -27.73655,12.59233 -12.94277,9.28387 -31.53908,36.69946 -31.53908,36.69946 z"
       id="path32" />
    <path
       style="font-variation-settings:normal;opacity:1;vector-effect:none;fill:none;fill-opacity:1;stroke:#a6036d;stroke-width:0.264614px;stroke-linecap:butt;stroke-linejoin:miter;stroke-miterlimit:4;stroke-dasharray:none;stroke-dashoffset:0;stroke-opacity:0.19086523;stop-color:#000000;stop-opacity:1"
       d="m 174.15933,226.95892 c 0,0 18.11902,-27.34033 30.91444,-37.09879 8.05327,-6.14186 19.99418,-5.94442 27.64975,-12.57674 7.48604,-6.48546 7.73129,-19.64195 16.04351,-25.02451 8.22476,-5.32594 20.09631,-0.38998 29.06243,-4.33775 9.8379,-4.33162 24.96904,-20.68432 24.96904,-20.68432 l -2.3e-4,1.69893 c 0,0 -13.97654,14.36547 -23.47761,19.19257 -9.06023,4.60313 -21.70371,-0.51761 -30.29152,4.91836 -8.25131,5.22298 -8.18666,18.25417 -15.59418,24.62047 -7.92574,6.81168 -19.24566,6.50179 -27.73655,12.59232 -12.94277,9.28388 -31.53908,36.69946 -31.53908,36.69946 z"
       id="path34" />
    <path
       style="font-variation-settings:normal;opacity:1;vector-effect:none;fill:none;fill-opacity:1;stroke:#a6036d;stroke-width:0.264614px;stroke-linecap:butt;stroke-linejoin:miter;stroke-miterlimit:4;stroke-dasharray:none;stroke-dashoffset:0;stroke-opacity:0.19086523;stop-color:#000000;stop-opacity:1"
       d="m 174.68819,228.54774 c 0,0 18.11902,-27.34033 30.91443,-37.09879 8.05327,-6.14185 19.99419,-5.94442 27.64975,-12.57673 7.48605,-6.48546 7.7313,-19.64196 16.04352,-25.02452 8.22476,-5.32593 20.09631,-0.38998 29.06243,-4.33775 9.8379,-4.33161 24.96904,-20.68431 24.96904,-20.68431 l -2.3e-4,1.69892 c 0,0 -13.97654,14.36549 -23.47761,19.19258 -9.06024,4.60314 -21.70371,-0.51762 -30.29152,4.91835 -8.25131,5.22298 -8.18666,18.25418 -15.59419,24.62048 -7.92573,6.81167 -19.24566,6.50179 -27.73655,12.59232 -12.94276,9.28387 -31.53907,36.69945 -31.53907,36.69945 z"
       id="path36" />
    <path
       style="font-variation-settings:normal;opacity:1;vector-effect:none;fill:none;fill-opacity:1;stroke:#a6036d;stroke-width:0.264614px;stroke-linecap:butt;stroke-linejoin:miter;stroke-miterlimit:4;stroke-dasharray:none;stroke-dashoffset:0;stroke-opacity:0.19086523;stop-color:#000000;stop-opacity:1"
       d="m 175.21704,230.13658 c 0,0 18.11903,-27.34034 30.91444,-37.09881 8.05327,-6.14184 19.99419,-5.94441 27.64975,-12.57673 7.48604,-6.48545 7.7313,-19.64196 16.04351,-25.02452 8.22477,-5.32592 20.09632,-0.38996 29.06244,-4.33773 9.8379,-4.33163 24.96904,-20.68432 24.96904,-20.68432 l -2.3e-4,1.69893 c 0,0 -13.97654,14.36547 -23.47762,19.19257 -9.06023,4.60313 -21.7037,-0.51763 -30.29151,4.91835 -8.25131,5.22297 -8.18666,18.25418 -15.59419,24.62047 -7.92573,6.81167 -19.24566,6.5018 -27.73655,12.59233 -12.94276,9.28387 -31.53908,36.69946 -31.53908,36.69946 z"
       id="path38" />
    <path
       style="font-variation-settings:normal;opacity:1;vector-effect:none;fill:none;fill-opacity:1;stroke:#a6036d;stroke-width:0.264614px;stroke-linecap:butt;stroke-linejoin:miter;stroke-miterlimit:4;stroke-dasharray:none;stroke-dashoffset:0;stroke-opacity:0.19086523;stop-color:#000000;stop-opacity:1"
       d="m 175.7459,231.7254 c 0,0 18.11903,-27.34033 30.91444,-37.09879 8.05327,-6.14186 19.99419,-5.94443 27.64975,-12.57674 7.48604,-6.48546 7.7313,-19.64195 16.04351,-25.02451 8.22477,-5.32594 20.09632,-0.38998 29.06243,-4.33775 9.83791,-4.33162 24.96905,-20.68432 24.96905,-20.68432 l -2.3e-4,1.69893 c 0,0 -13.97655,14.36547 -23.47762,19.19257 -9.06023,4.60313 -21.7037,-0.51761 -30.29151,4.91836 -8.25132,5.22298 -8.18666,18.25417 -15.59419,24.62047 -7.92574,6.81168 -19.24566,6.50179 -27.73655,12.59232 -12.94277,9.28388 -31.53908,36.69946 -31.53908,36.69946 z"
       id="path40" />
    <path
       style="font-variation-settings:normal;opacity:1;vector-effect:none;fill:none;fill-opacity:1;stroke:#a6036d;stroke-width:0.264614px;stroke-linecap:butt;stroke-linejoin:miter;stroke-miterlimit:4;stroke-dasharray:none;stroke-dashoffset:0;stroke-opacity:0.19086523;stop-color:#000000;stop-opacity:1"
       d="m 176.27476,233.31422 c 0,0 18.11902,-27.34033 30.91444,-37.09879 8.05326,-6.14185 19.99418,-5.94442 27.64974,-12.57673 7.48605,-6.48546 7.7313,-19.64196 16.04352,-25.02452 8.22476,-5.32594 20.09631,-0.38998 29.06243,-4.33775 9.8379,-4.33161 24.96904,-20.68431 24.96904,-20.68431 l -2.3e-4,1.69892 c 0,0 -13.97654,14.36547 -23.47761,19.19258 -9.06023,4.60314 -21.70371,-0.51762 -30.29152,4.91835 -8.25131,5.22298 -8.18666,18.25418 -15.59419,24.62048 -7.92573,6.81167 -19.24565,6.50179 -27.73654,12.59232 -12.94277,9.28387 -31.53908,36.69945 -31.53908,36.69945 z"
       id="path42" />
    <path
       style="font-variation-settings:normal;opacity:1;vector-effect:none;fill:none;fill-opacity:1;stroke:#a6036d;stroke-width:0.264614px;stroke-linecap:butt;stroke-linejoin:miter;stroke-miterlimit:4;stroke-dasharray:none;stroke-dashoffset:0;stroke-opacity:0.19086523;stop-color:#000000;stop-opacity:1"
       d="m 176.80362,234.90306 c 0,0 18.11902,-27.34034 30.91443,-37.09881 8.05327,-6.14184 19.99419,-5.94441 27.64975,-12.57673 7.48604,-6.48545 7.7313,-19.64196 16.04351,-25.02452 8.22477,-5.32592 20.09632,-0.38996 29.06244,-4.33773 9.8379,-4.33163 24.96904,-20.68432 24.96904,-20.68432 l -2.3e-4,1.69893 c 0,0 -13.97654,14.36547 -23.47761,19.19257 -9.06024,4.60313 -21.70371,-0.51763 -30.29152,4.91835 -8.25131,5.22297 -8.18666,18.25418 -15.59419,24.62047 -7.92573,6.81167 -19.24566,6.5018 -27.73655,12.59232 -12.94276,9.28388 -31.53907,36.69947 -31.53907,36.69947 z"
       id="path44" />
    <path
       style="font-variation-settings:normal;opacity:1;vector-effect:none;fill:none;fill-opacity:1;stroke:#a6036d;stroke-width:0.264614px;stroke-linecap:butt;stroke-linejoin:miter;stroke-miterlimit:4;stroke-dasharray:none;stroke-dashoffset:0;stroke-opacity:0.19086523;stop-color:#000000;stop-opacity:1"
       d="m 177.33247,236.49188 c 0,0 18.11903,-27.34033 30.91444,-37.09879 8.05327,-6.14186 19.99419,-5.94443 27.64975,-12.57674 7.48604,-6.48546 7.7313,-19.64195 16.04351,-25.02451 8.22477,-5.32594 20.09632,-0.38998 29.06244,-4.33775 9.8379,-4.33162 24.96904,-20.68432 24.96904,-20.68432 l -2.3e-4,1.69893 c 0,0 -13.97655,14.36547 -23.47762,19.19257 -9.06023,4.60313 -21.7037,-0.51761 -30.29151,4.91836 -8.25131,5.22298 -8.18666,18.25417 -15.59419,24.62046 -7.92573,6.81169 -19.24566,6.5018 -27.73655,12.59233 -12.94276,9.28387 -31.53908,36.69946 -31.53908,36.69946 z"
       id="path46" />
    <path
       style="font-variation-settings:normal;opacity:1;vector-effect:none;fill:none;fill-opacity:1;stroke:#a6036d;stroke-width:0.264614px;stroke-linecap:butt;stroke-linejoin:miter;stroke-miterlimit:4;stroke-dasharray:none;stroke-dashoffset:0;stroke-opacity:0.19086523;stop-color:#000000;stop-opacity:1"
       d="m 177.86133,238.0807 c 0,0 18.11903,-27.34033 30.91444,-37.09879 8.05327,-6.14185 19.99418,-5.94442 27.64975,-12.57673 7.48604,-6.48546 7.73129,-19.64196 16.04351,-25.02452 8.22476,-5.32594 20.09631,-0.38998 29.06243,-4.33775 9.8379,-4.33161 24.96905,-20.68431 24.96905,-20.68431 l -2.3e-4,1.69892 c 0,0 -13.97655,14.36547 -23.47762,19.19258 -9.06023,4.60314 -21.70371,-0.51762 -30.29152,4.91835 -8.25131,5.22298 -8.18666,18.25418 -15.59418,24.62048 -7.92574,6.81167 -19.24566,6.50179 -27.73655,12.59232 -12.94277,9.28387 -31.53908,36.69945 -31.53908,36.69945 z"
       id="path48" />
    <path
       style="font-variation-settings:normal;opacity:1;vector-effect:none;fill:none;fill-opacity:1;stroke:#a6036d;stroke-width:0.264614px;stroke-linecap:butt;stroke-linejoin:miter;stroke-miterlimit:4;stroke-dasharray:none;stroke-dashoffset:0;stroke-opacity:0.19086523;stop-color:#000000;stop-opacity:1"
       d="m 178.39019,239.66954 c 0,0 18.11902,-27.34035 30.91444,-37.09881 8.05326,-6.14184 19.99418,-5.94441 27.64974,-12.57673 7.48605,-6.48545 7.7313,-19.64196 16.04352,-25.02452 8.22476,-5.32592 20.09631,-0.38996 29.06243,-4.33773 9.8379,-4.33163 24.96904,-20.68433 24.96904,-20.68433 l -2.3e-4,1.69894 c 0,0 -13.97654,14.36547 -23.47761,19.19257 -9.06024,4.60313 -21.70371,-0.51763 -30.29152,4.91835 -8.25131,5.22297 -8.18666,18.25418 -15.59419,24.62047 -7.92573,6.81167 -19.24565,6.5018 -27.73654,12.59232 -12.94277,9.28388 -31.53908,36.69947 -31.53908,36.69947 z"
       id="path50" />
    <path
       style="font-variation-settings:normal;opacity:1;vector-effect:none;fill:none;fill-opacity:1;stroke:#a6036d;stroke-width:0.264614px;stroke-linecap:butt;stroke-linejoin:miter;stroke-miterlimit:4;stroke-dasharray:none;stroke-dashoffset:0;stroke-opacity:0.19086523;stop-color:#000000;stop-opacity:1"
       d="m 178.91904,241.25836 c 0,0 18.11903,-27.34033 30.91444,-37.09881 8.05327,-6.14184 19.99419,-5.94441 27.64975,-12.57672 7.48604,-6.48545 7.7313,-19.64195 16.04351,-25.02451 8.22477,-5.32594 20.09632,-0.38998 29.06244,-4.33775 9.8379,-4.33162 24.96904,-20.68432 24.96904,-20.68432 l -2.3e-4,1.69893 c 0,0 -13.97654,14.36547 -23.47762,19.19257 -9.06023,4.60313 -21.7037,-0.51761 -30.29151,4.91836 -8.25131,5.22298 -8.18666,18.25417 -15.59419,24.62046 -7.92573,6.81169 -19.24566,6.5018 -27.73655,12.59233 -12.94276,9.28387 -31.53908,36.69946 -31.53908,36.69946 z"
       id="path52" />
    <path
       style="font-variation-settings:normal;opacity:1;vector-effect:none;fill:none;fill-opacity:1;stroke:#a6036d;stroke-width:0.264614px;stroke-linecap:butt;stroke-linejoin:miter;stroke-miterlimit:4;stroke-dasharray:none;stroke-dashoffset:0;stroke-opacity:0.19086523;stop-color:#000000;stop-opacity:1"
       d="m 179.4479,242.84718 c 0,0 18.11903,-27.34033 30.91444,-37.09879 8.05327,-6.14186 19.99419,-5.94442 27.64975,-12.57674 7.48604,-6.48545 7.7313,-19.64195 16.04351,-25.02451 8.22477,-5.32594 20.09632,-0.38998 29.06243,-4.33775 9.83791,-4.33161 24.96905,-20.68431 24.96905,-20.68431 l -2.3e-4,1.69892 c 0,0 -13.97655,14.36547 -23.47762,19.19258 -9.06023,4.60313 -21.7037,-0.51762 -30.29151,4.91835 -8.25131,5.22298 -8.18666,18.25418 -15.59419,24.62048 -7.92573,6.81167 -19.24566,6.50179 -27.73655,12.59232 -12.94277,9.28387 -31.53908,36.69945 -31.53908,36.69945 z"
       id="path54" />
    <path
       style="font-variation-settings:normal;opacity:1;vector-effect:none;fill:none;fill-opacity:1;stroke:#a6036d;stroke-width:0.264614px;stroke-linecap:butt;stroke-linejoin:miter;stroke-miterlimit:4;stroke-dasharray:none;stroke-dashoffset:0;stroke-opacity:0.19086523;stop-color:#000000;stop-opacity:1"
       d="m 179.97676,244.43601 c 0,0 18.11902,-27.34034 30.91444,-37.0988 8.05326,-6.14184 19.99418,-5.94441 27.64975,-12.57673 7.48604,-6.48545 7.73129,-19.64195 16.04351,-25.02452 8.22476,-5.32592 20.09631,-0.38996 29.06243,-4.33773 9.8379,-4.33163 24.96904,-20.68433 24.96904,-20.68433 l -2.3e-4,1.69894 c 0,0 -13.97654,14.36547 -23.47761,19.19257 -9.06023,4.60313 -21.70371,-0.51763 -30.29152,4.91835 -8.25131,5.22297 -8.18666,18.25417 -15.59418,24.62047 -7.92574,6.81167 -19.24566,6.5018 -27.73655,12.59232 -12.94277,9.28388 -31.53908,36.69946 -31.53908,36.69946 z"
       id="path56" />
    <path
       style="font-variation-settings:normal;opacity:1;vector-effect:none;fill:none;fill-opacity:1;stroke:#a6036d;stroke-width:0.264614px;stroke-linecap:butt;stroke-linejoin:miter;stroke-miterlimit:4;stroke-dasharray:none;stroke-dashoffset:0;stroke-opacity:0.19086523;stop-color:#000000;stop-opacity:1"
       d="m 180.50562,246.02484 c 0,0 18.11902,-27.34033 30.91443,-37.09881 8.05327,-6.14184 19.99419,-5.94441 27.64975,-12.57672 7.48605,-6.48545 7.7313,-19.64196 16.04352,-25.02451 8.22476,-5.32594 20.09631,-0.38998 29.06243,-4.33775 9.8379,-4.33162 24.96904,-20.68432 24.96904,-20.68432 l -2.3e-4,1.69893 c 0,0 -13.97654,14.36547 -23.47761,19.19257 -9.06024,4.60313 -21.70371,-0.51761 -30.29152,4.91836 -8.25131,5.22298 -8.18666,18.25417 -15.59419,24.62046 -7.92573,6.81167 -19.24566,6.50181 -27.73655,12.59233 -12.94276,9.28387 -31.53907,36.69946 -31.53907,36.69946 z"
       id="path58" />
    <path
       style="font-variation-settings:normal;opacity:1;vector-effect:none;fill:none;fill-opacity:1;stroke:#a6036d;stroke-width:0.264614px;stroke-linecap:butt;stroke-linejoin:miter;stroke-miterlimit:4;stroke-dasharray:none;stroke-dashoffset:0;stroke-opacity:0.19086523;stop-color:#000000;stop-opacity:1"
       d="m 181.03447,247.61366 c 0,0 18.11903,-27.34033 30.91444,-37.09879 8.05327,-6.14186 19.99419,-5.94442 27.64975,-12.57674 7.48604,-6.48545 7.7313,-19.64195 16.04351,-25.02451 8.22477,-5.32594 20.09632,-0.38998 29.06244,-4.33775 9.8379,-4.33161 24.96904,-20.68431 24.96904,-20.68431 l -2.3e-4,1.69892 c 0,0 -13.97654,14.36547 -23.47762,19.19258 -9.06023,4.60313 -21.7037,-0.51762 -30.29151,4.91835 -8.25131,5.22298 -8.18666,18.25418 -15.59419,24.62048 -7.92573,6.81167 -19.24566,6.50179 -27.73655,12.59232 -12.94276,9.28387 -31.53908,36.69945 -31.53908,36.69945 z"
       id="path60" />
    <path
       style="font-variation-settings:normal;opacity:1;vector-effect:none;fill:none;fill-opacity:1;stroke:#a6036d;stroke-width:0.264614px;stroke-linecap:butt;stroke-linejoin:miter;stroke-miterlimit:4;stroke-dasharray:none;stroke-dashoffset:0;stroke-opacity:0.19086523;stop-color:#000000;stop-opacity:1"
       d="m 181.56333,249.20249 c 0,0 18.11903,-27.34034 30.91444,-37.0988 8.05327,-6.14184 19.99419,-5.94441 27.64975,-12.57673 7.48604,-6.48545 7.7313,-19.64195 16.04351,-25.02452 8.22476,-5.32592 20.09631,-0.38996 29.06243,-4.33774 9.83791,-4.33162 24.96905,-20.68432 24.96905,-20.68432 l -2.3e-4,1.69893 c 0,0 -13.97655,14.36548 -23.47762,19.19258 -9.06023,4.60313 -21.7037,-0.51763 -30.29152,4.91835 -8.25131,5.22297 -8.18665,18.25417 -15.59418,24.62047 -7.92574,6.81167 -19.24566,6.50179 -27.73655,12.59232 -12.94277,9.28388 -31.53908,36.69946 -31.53908,36.69946 z"
       id="path62" />
    <path
       style="font-variation-settings:normal;opacity:1;vector-effect:none;fill:none;fill-opacity:1;stroke:#a6036d;stroke-width:0.264614px;stroke-linecap:butt;stroke-linejoin:miter;stroke-miterlimit:4;stroke-dasharray:none;stroke-dashoffset:0;stroke-opacity:0.19086523;stop-color:#000000;stop-opacity:1"
       d="m 182.09219,250.79132 c 0,0 18.11902,-27.34033 30.91444,-37.09881 8.05326,-6.14184 19.99418,-5.94441 27.64974,-12.57672 7.48605,-6.48545 7.7313,-19.64196 16.04352,-25.02452 8.22476,-5.32593 20.09631,-0.38997 29.06243,-4.33774 9.8379,-4.33162 24.96904,-20.68432 24.96904,-20.68432 l -2.3e-4,1.69893 c 0,0 -13.97654,14.36547 -23.47761,19.19257 -9.06023,4.60313 -21.70371,-0.51761 -30.29152,4.91836 -8.25131,5.22298 -8.18666,18.25417 -15.59419,24.62046 -7.92573,6.81167 -19.24565,6.50181 -27.73654,12.59233 -12.94277,9.28387 -31.53908,36.69946 -31.53908,36.69946 z"
       id="path64" />
    <path
       style="font-variation-settings:normal;opacity:1;vector-effect:none;fill:none;fill-opacity:1;stroke:#a6036d;stroke-width:0.264614px;stroke-linecap:butt;stroke-linejoin:miter;stroke-miterlimit:4;stroke-dasharray:none;stroke-dashoffset:0;stroke-opacity:0.19086523;stop-color:#000000;stop-opacity:1"
       d="m 182.62105,252.38014 c 0,0 18.11902,-27.34033 30.91443,-37.09879 8.05327,-6.14186 19.99419,-5.94442 27.64975,-12.57674 7.48604,-6.48545 7.7313,-19.64195 16.04351,-25.02451 8.22477,-5.32594 20.09632,-0.38998 29.06244,-4.33775 9.8379,-4.33162 24.96904,-20.68431 24.96904,-20.68431 l -2.3e-4,1.69892 c 0,0 -13.97654,14.36547 -23.47762,19.19257 -9.06023,4.60314 -21.7037,-0.51761 -30.29151,4.91836 -8.25131,5.22298 -8.18666,18.25418 -15.59419,24.62048 -7.92573,6.81167 -19.24566,6.50179 -27.73655,12.59232 -12.94276,9.28387 -31.53907,36.69945 -31.53907,36.69945 z"
       id="path66" />
    <path
       style="font-variation-settings:normal;opacity:1;vector-effect:none;fill:none;fill-opacity:1;stroke:#a6036d;stroke-width:0.264614px;stroke-linecap:butt;stroke-linejoin:miter;stroke-miterlimit:4;stroke-dasharray:none;stroke-dashoffset:0;stroke-opacity:0.19086523;stop-color:#000000;stop-opacity:1"
       d="m 183.1499,253.96897 c 0,0 18.11903,-27.34034 30.91444,-37.0988 8.05327,-6.14184 19.99419,-5.94441 27.64975,-12.57673 7.48604,-6.48545 7.7313,-19.64195 16.04351,-25.02452 8.22477,-5.32592 20.09632,-0.38997 29.06244,-4.33774 9.8379,-4.33162 24.96904,-20.68432 24.96904,-20.68432 l -2.3e-4,1.69893 c 0,0 -13.97655,14.36548 -23.47762,19.19258 -9.06023,4.60313 -21.7037,-0.51763 -30.29151,4.91835 -8.25131,5.22297 -8.18666,18.25417 -15.59419,24.62047 -7.92573,6.81167 -19.24566,6.50179 -27.73655,12.59232 -12.94276,9.28388 -31.53908,36.69946 -31.53908,36.69946 z"
       id="path68" />
    <path
       style="font-variation-settings:normal;opacity:1;vector-effect:none;fill:none;fill-opacity:1;stroke:#a6036d;stroke-width:0.264614px;stroke-linecap:butt;stroke-linejoin:miter;stroke-miterlimit:4;stroke-dasharray:none;stroke-dashoffset:0;stroke-opacity:0.19086523;stop-color:#000000;stop-opacity:1"
       d="m 183.67876,255.5578 c 0,0 18.11903,-27.34033 30.91444,-37.09881 8.05327,-6.14184 19.99418,-5.94441 27.64975,-12.57672 7.48604,-6.48545 7.73129,-19.64196 16.04351,-25.02452 8.22476,-5.32593 20.09631,-0.38997 29.06243,-4.33774 9.8379,-4.33162 24.96904,-20.68432 24.96904,-20.68432 l -2.2e-4,1.69893 c 0,0 -13.97655,14.36547 -23.47762,19.19257 -9.06023,4.60313 -21.70371,-0.51761 -30.29152,4.91836 -8.25131,5.22297 -8.18666,18.25417 -15.59418,24.62046 -7.92574,6.81167 -19.24566,6.50181 -27.73655,12.59233 -12.94277,9.28387 -31.53908,36.69946 -31.53908,36.69946 z"
       id="path70" />
    <path
       style="font-variation-settings:normal;opacity:1;vector-effect:none;fill:none;fill-opacity:1;stroke:#a6036d;stroke-width:0.264614px;stroke-linecap:butt;stroke-linejoin:miter;stroke-miterlimit:4;stroke-dasharray:none;stroke-dashoffset:0;stroke-opacity:0.19086523;stop-color:#000000;stop-opacity:1"
       d="m 184.20762,257.14662 c 0,0 18.11902,-27.34033 30.91444,-37.09879 8.05326,-6.14186 19.99418,-5.94443 27.64974,-12.57674 7.48605,-6.48545 7.7313,-19.64195 16.04352,-25.02451 8.22476,-5.32594 20.09631,-0.38998 29.06243,-4.33775 9.8379,-4.33162 24.96904,-20.68431 24.96904,-20.68431 l -2.3e-4,1.69892 c 0,0 -13.97654,14.36547 -23.47761,19.19257 -9.06024,4.60314 -21.70371,-0.51761 -30.29152,4.91836 -8.25131,5.22298 -8.18666,18.25418 -15.59419,24.62048 -7.92573,6.81167 -19.24566,6.50179 -27.73654,12.59232 -12.94277,9.28387 -31.53908,36.69945 -31.53908,36.69945 z"
       id="path72" />
    <path
       style="font-variation-settings:normal;opacity:1;vector-effect:none;fill:none;fill-opacity:1;stroke:#a6036d;stroke-width:0.264614px;stroke-linecap:butt;stroke-linejoin:miter;stroke-miterlimit:4;stroke-dasharray:none;stroke-dashoffset:0;stroke-opacity:0.19086523;stop-color:#000000;stop-opacity:1"
       d="m 184.73647,258.73545 c 0,0 18.11903,-27.34034 30.91444,-37.0988 8.05327,-6.14184 19.99419,-5.94441 27.64975,-12.57673 7.48604,-6.48546 7.7313,-19.64195 16.04351,-25.02452 8.22477,-5.32592 20.09632,-0.38997 29.06244,-4.33774 9.8379,-4.33161 24.96904,-20.68432 24.96904,-20.68432 l -2.3e-4,1.69893 c 0,0 -13.97654,14.36547 -23.47762,19.19258 -9.06023,4.60313 -21.7037,-0.51763 -30.29151,4.91834 -8.25131,5.22298 -8.18666,18.25418 -15.59419,24.62048 -7.92573,6.81167 -19.24566,6.50179 -27.73655,12.59232 -12.94276,9.28388 -31.53908,36.69946 -31.53908,36.69946 z"
       id="path74" />
    <path
       style="font-variation-settings:normal;opacity:1;vector-effect:none;fill:none;fill-opacity:1;stroke:#a6036d;stroke-width:0.264614px;stroke-linecap:butt;stroke-linejoin:miter;stroke-miterlimit:4;stroke-dasharray:none;stroke-dashoffset:0;stroke-opacity:0.19086523;stop-color:#000000;stop-opacity:1"
       d="m 185.26533,260.32428 c 0,0 18.11903,-27.34033 30.91444,-37.09881 8.05327,-6.14184 19.99419,-5.94441 27.64975,-12.57672 7.48604,-6.48545 7.7313,-19.64196 16.04351,-25.02452 8.22477,-5.32593 20.09632,-0.38997 29.06243,-4.33774 9.83791,-4.33162 24.96905,-20.68432 24.96905,-20.68432 l -2.3e-4,1.69893 c 0,0 -13.97655,14.36547 -23.47762,19.19257 -9.06023,4.60313 -21.7037,-0.51763 -30.29151,4.91836 -8.25132,5.22297 -8.18666,18.25417 -15.59419,24.62046 -7.92574,6.81167 -19.24566,6.50181 -27.73655,12.59232 -12.94277,9.28388 -31.53908,36.69947 -31.53908,36.69947 z"
       id="path76" />
    <path
       style="font-variation-settings:normal;opacity:1;vector-effect:none;fill:none;fill-opacity:1;stroke:#a6036d;stroke-width:0.264614px;stroke-linecap:butt;stroke-linejoin:miter;stroke-miterlimit:4;stroke-dasharray:none;stroke-dashoffset:0;stroke-opacity:0.19086523;stop-color:#000000;stop-opacity:1"
       d="m 185.79419,261.9131 c 0,0 18.11902,-27.34033 30.91444,-37.09879 8.05326,-6.14186 19.99418,-5.94443 27.64975,-12.57674 7.48604,-6.48545 7.73129,-19.64195 16.04351,-25.02451 8.22476,-5.32594 20.09631,-0.38998 29.06243,-4.33775 9.8379,-4.33162 24.96904,-20.68431 24.96904,-20.68431 l -2.3e-4,1.69892 c 0,0 -13.97654,14.36547 -23.47761,19.19257 -9.06023,4.60314 -21.70371,-0.51761 -30.29152,4.91836 -8.25131,5.22298 -8.18666,18.25418 -15.59419,24.62047 -7.92573,6.81168 -19.24565,6.5018 -27.73654,12.59233 -12.94277,9.28386 -31.53908,36.69945 -31.53908,36.69945 z"
       id="path78" />
    <path
       style="font-variation-settings:normal;opacity:1;vector-effect:none;fill:none;fill-opacity:1;stroke:#a6036d;stroke-width:0.264614px;stroke-linecap:butt;stroke-linejoin:miter;stroke-miterlimit:4;stroke-dasharray:none;stroke-dashoffset:0;stroke-opacity:0.19086523;stop-color:#000000;stop-opacity:1"
       d="m 186.32305,263.50193 c 0,0 18.11902,-27.34034 30.91443,-37.0988 8.05327,-6.14184 19.99419,-5.94441 27.64975,-12.57673 7.48605,-6.48546 7.7313,-19.64195 16.04351,-25.02452 8.22477,-5.32593 20.09632,-0.38997 29.06244,-4.33774 9.8379,-4.33161 24.96904,-20.68432 24.96904,-20.68432 l -2.3e-4,1.69893 c 0,0 -13.97654,14.36547 -23.47761,19.19258 -9.06024,4.60313 -21.70371,-0.51763 -30.29152,4.91834 -8.25131,5.22298 -8.18666,18.25418 -15.59419,24.62048 -7.92573,6.81167 -19.24566,6.50179 -27.73655,12.59232 -12.94276,9.28388 -31.53907,36.69946 -31.53907,36.69946 z"
       id="path80" />
    <path
       style="font-variation-settings:normal;opacity:1;vector-effect:none;fill:none;fill-opacity:1;stroke:#a6036d;stroke-width:0.264614px;stroke-linecap:butt;stroke-linejoin:miter;stroke-miterlimit:4;stroke-dasharray:none;stroke-dashoffset:0;stroke-opacity:0.19086523;stop-color:#000000;stop-opacity:1"
       d="m 186.8519,265.09076 c 0,0 18.11903,-27.34033 30.91444,-37.09881 8.05327,-6.14184 19.99419,-5.94441 27.64975,-12.57672 7.48604,-6.48545 7.7313,-19.64196 16.04351,-25.02452 8.22477,-5.32593 20.09632,-0.38997 29.06244,-4.33774 9.8379,-4.33162 24.96904,-20.68432 24.96904,-20.68432 l -2.3e-4,1.69893 c 0,0 -13.97654,14.36547 -23.47762,19.19257 -9.06023,4.60313 -21.7037,-0.51763 -30.29151,4.91836 -8.25131,5.22297 -8.18666,18.25417 -15.59419,24.62046 -7.92573,6.81167 -19.24566,6.50181 -27.73655,12.59232 -12.94276,9.28388 -31.53908,36.69947 -31.53908,36.69947 z"
       id="path82" />
    <path
       style="font-variation-settings:normal;opacity:1;vector-effect:none;fill:none;fill-opacity:1;stroke:#a6036d;stroke-width:0.264614px;stroke-linecap:butt;stroke-linejoin:miter;stroke-miterlimit:4;stroke-dasharray:none;stroke-dashoffset:0;stroke-opacity:0.19086523;stop-color:#000000;stop-opacity:1"
       d="m 187.38076,266.67958 c 0,0 18.11903,-27.34033 30.91444,-37.09879 8.05327,-6.14186 19.99418,-5.94443 27.64975,-12.57674 7.48604,-6.48545 7.7313,-19.64195 16.04351,-25.02451 8.22476,-5.32594 20.09631,-0.38998 29.06243,-4.33775 9.83791,-4.33162 24.96905,-20.68431 24.96905,-20.68431 l -2.3e-4,1.69892 c 0,0 -13.97655,14.36547 -23.47762,19.19257 -9.06023,4.60314 -21.7037,-0.51761 -30.29152,4.91836 -8.25131,5.22298 -8.18665,18.25418 -15.59418,24.62047 -7.92574,6.81168 -19.24566,6.5018 -27.73655,12.59233 -12.94277,9.28386 -31.53908,36.69945 -31.53908,36.69945 z"
       id="path84" />
    <path
       style="font-variation-settings:normal;opacity:1;vector-effect:none;fill:none;fill-opacity:1;stroke:#a6036d;stroke-width:0.264614px;stroke-linecap:butt;stroke-linejoin:miter;stroke-miterlimit:4;stroke-dasharray:none;stroke-dashoffset:0;stroke-opacity:0.19086523;stop-color:#000000;stop-opacity:1"
       d="m 187.90962,268.26841 c 0,0 18.11902,-27.34034 30.91444,-37.0988 8.05326,-6.14184 19.99418,-5.94441 27.64974,-12.57674 7.48605,-6.48545 7.7313,-19.64194 16.04352,-25.02451 8.22476,-5.32593 20.09631,-0.38997 29.06243,-4.33774 9.8379,-4.33161 24.96904,-20.68432 24.96904,-20.68432 l -2.3e-4,1.69893 c 0,0 -13.97654,14.36547 -23.47761,19.19258 -9.06023,4.60313 -21.70371,-0.51763 -30.29152,4.91834 -8.25131,5.22298 -8.18666,18.25418 -15.59419,24.62048 -7.92573,6.81167 -19.24565,6.50179 -27.73654,12.59232 -12.94277,9.28388 -31.53908,36.69946 -31.53908,36.69946 z"
       id="path86" />
    <path
       style="font-variation-settings:normal;opacity:1;vector-effect:none;fill:none;fill-opacity:1;stroke:#a6036d;stroke-width:0.264614px;stroke-linecap:butt;stroke-linejoin:miter;stroke-miterlimit:4;stroke-dasharray:none;stroke-dashoffset:0;stroke-opacity:0.19086523;stop-color:#000000;stop-opacity:1"
       d="m 188.43848,269.85723 c 0,0 18.11902,-27.34033 30.91443,-37.0988 8.05327,-6.14184 19.99419,-5.94441 27.64975,-12.57672 7.48604,-6.48545 7.7313,-19.64196 16.04351,-25.02452 8.22477,-5.32593 20.09632,-0.38997 29.06244,-4.33774 9.8379,-4.33162 24.96904,-20.68433 24.96904,-20.68433 l -2.3e-4,1.69894 c 0,0 -13.97654,14.36547 -23.47762,19.19257 -9.06023,4.60313 -21.7037,-0.51762 -30.29151,4.91836 -8.25131,5.22297 -8.18666,18.25416 -15.59419,24.62046 -7.92573,6.81167 -19.24566,6.50181 -27.73655,12.59232 -12.94276,9.28388 -31.53907,36.69946 -31.53907,36.69946 z"
       id="path88" />
    <path
       style="font-variation-settings:normal;opacity:1;vector-effect:none;fill:none;fill-opacity:1;stroke:#a6036d;stroke-width:0.264614px;stroke-linecap:butt;stroke-linejoin:miter;stroke-miterlimit:4;stroke-dasharray:none;stroke-dashoffset:0;stroke-opacity:0.19086523;stop-color:#000000;stop-opacity:1"
       d="m 188.96733,271.44606 c 0,0 18.11903,-27.34033 30.91444,-37.0988 8.05327,-6.14185 19.99419,-5.94442 27.64975,-12.57673 7.48604,-6.48545 7.7313,-19.64196 16.04351,-25.02451 8.22477,-5.32594 20.09632,-0.38998 29.06243,-4.33775 9.83791,-4.33162 24.96905,-20.68431 24.96905,-20.68431 l -2.3e-4,1.69892 c 0,0 -13.97655,14.36547 -23.47762,19.19257 -9.06023,4.60314 -21.7037,-0.51761 -30.29151,4.91836 -8.25131,5.22298 -8.18666,18.25418 -15.59419,24.62047 -7.92573,6.81168 -19.24566,6.5018 -27.73655,12.59233 -12.94276,9.28386 -31.53908,36.69945 -31.53908,36.69945 z"
       id="path90" />
    <path
       style="font-variation-settings:normal;opacity:1;vector-effect:none;fill:none;fill-opacity:1;stroke:#a6036d;stroke-width:0.264614px;stroke-linecap:butt;stroke-linejoin:miter;stroke-miterlimit:4;stroke-dasharray:none;stroke-dashoffset:0;stroke-opacity:0.19086523;stop-color:#000000;stop-opacity:1"
       d="m 189.49619,273.03489 c 0,0 18.11902,-27.34034 30.91444,-37.0988 8.05327,-6.14186 19.99418,-5.94441 27.64975,-12.57674 7.48604,-6.48545 7.73129,-19.64194 16.04351,-25.0245 8.22476,-5.32594 20.09631,-0.38998 29.06243,-4.33775 9.8379,-4.33161 24.96904,-20.68432 24.96904,-20.68432 l -2.3e-4,1.69893 c 0,0 -13.97654,14.36547 -23.47761,19.19258 -9.06023,4.60312 -21.70371,-0.51763 -30.29152,4.91834 -8.25131,5.22298 -8.18666,18.25418 -15.59418,24.62048 -7.92574,6.81167 -19.24566,6.50179 -27.73655,12.59232 -12.94277,9.28388 -31.53908,36.69946 -31.53908,36.69946 z"
       id="path92" />
    <path
       style="font-variation-settings:normal;opacity:1;vector-effect:none;fill:none;fill-opacity:1;stroke:#a6036d;stroke-width:0.264614px;stroke-linecap:butt;stroke-linejoin:miter;stroke-miterlimit:4;stroke-dasharray:none;stroke-dashoffset:0;stroke-opacity:0.19086523;stop-color:#000000;stop-opacity:1"
       d="m 190.02505,274.62371 c 0,0 18.11902,-27.34033 30.91444,-37.0988 8.05326,-6.14184 19.99418,-5.94441 27.64974,-12.57672 7.48605,-6.48545 7.7313,-19.64196 16.04352,-25.02452 8.22476,-5.32593 20.09631,-0.38997 29.06243,-4.33775 9.8379,-4.33161 24.96904,-20.68432 24.96904,-20.68432 l -2.3e-4,1.69893 c 0,0 -13.97654,14.36548 -23.47761,19.19258 -9.06024,4.60313 -21.70371,-0.51762 -30.29152,4.91836 -8.25131,5.22297 -8.18666,18.25416 -15.59419,24.62046 -7.92573,6.81168 -19.24566,6.50181 -27.73655,12.59232 -12.94276,9.28388 -31.53907,36.69946 -31.53907,36.69946 z"
       id="path94" />
    <path
       style="font-variation-settings:normal;opacity:1;vector-effect:none;fill:none;fill-opacity:1;stroke:#a6036d;stroke-width:0.264614px;stroke-linecap:butt;stroke-linejoin:miter;stroke-miterlimit:4;stroke-dasharray:none;stroke-dashoffset:0;stroke-opacity:0.19086523;stop-color:#000000;stop-opacity:1"
       d="m 190.5539,276.21254 c 0,0 18.11903,-27.34033 30.91444,-37.0988 8.05327,-6.14185 19.99419,-5.94442 27.64975,-12.57673 7.48604,-6.48545 7.7313,-19.64196 16.04351,-25.02452 8.22477,-5.32593 20.09632,-0.38997 29.06244,-4.33774 9.8379,-4.33162 24.96904,-20.68431 24.96904,-20.68431 l -2.3e-4,1.69892 c 0,0 -13.97654,14.36547 -23.47762,19.19257 -9.06023,4.60314 -21.7037,-0.51761 -30.29151,4.91836 -8.25131,5.22298 -8.18666,18.25418 -15.59419,24.62047 -7.92573,6.81167 -19.24566,6.5018 -27.73655,12.59233 -12.94276,9.28386 -31.53908,36.69945 -31.53908,36.69945 z"
       id="path96" />
    <path
       style="font-variation-settings:normal;opacity:1;vector-effect:none;fill:none;fill-opacity:1;stroke:#a6036d;stroke-width:0.264614px;stroke-linecap:butt;stroke-linejoin:miter;stroke-miterlimit:4;stroke-dasharray:none;stroke-dashoffset:0;stroke-opacity:0.19086523;stop-color:#000000;stop-opacity:1"
       d="m 191.08276,277.80137 c 0,0 18.11903,-27.34034 30.91444,-37.0988 8.05327,-6.14186 19.99419,-5.94441 27.64975,-12.57674 7.48604,-6.48545 7.7313,-19.64194 16.04351,-25.0245 8.22477,-5.32594 20.09632,-0.38998 29.06243,-4.33775 9.83791,-4.33163 24.96905,-20.68432 24.96905,-20.68432 l -2.3e-4,1.69893 c 0,0 -13.97655,14.36547 -23.47762,19.19256 -9.06023,4.60314 -21.7037,-0.51761 -30.29152,4.91836 -8.25131,5.22298 -8.18665,18.25418 -15.59418,24.62048 -7.92574,6.81167 -19.24566,6.50179 -27.73655,12.59232 -12.94277,9.28388 -31.53908,36.69946 -31.53908,36.69946 z"
       id="path98" />
    <path
       style="font-variation-settings:normal;opacity:1;vector-effect:none;fill:none;fill-opacity:1;stroke:#a6036d;stroke-width:0.264614px;stroke-linecap:butt;stroke-linejoin:miter;stroke-miterlimit:4;stroke-dasharray:none;stroke-dashoffset:0;stroke-opacity:0.19086523;stop-color:#000000;stop-opacity:1"
       d="m 191.61162,279.39019 c 0,0 18.11902,-27.34033 30.91444,-37.0988 8.05326,-6.14184 19.99418,-5.94441 27.64974,-12.57672 7.48605,-6.48545 7.7313,-19.64196 16.04352,-25.02452 8.22476,-5.32593 20.09631,-0.38998 29.06243,-4.33775 9.8379,-4.33161 24.96904,-20.68432 24.96904,-20.68432 l -2.3e-4,1.69893 c 0,0 -13.97654,14.36548 -23.47761,19.19258 -9.06023,4.60313 -21.70371,-0.51762 -30.29152,4.91836 -8.25131,5.22297 -8.18666,18.25416 -15.59419,24.62046 -7.92573,6.81168 -19.24565,6.50179 -27.73654,12.59232 -12.94277,9.28388 -31.53908,36.69946 -31.53908,36.69946 z"
       id="path100" />
    <path
       style="font-variation-settings:normal;opacity:1;vector-effect:none;fill:none;fill-opacity:1;stroke:#a6036d;stroke-width:0.264614px;stroke-linecap:butt;stroke-linejoin:miter;stroke-miterlimit:4;stroke-dasharray:none;stroke-dashoffset:0;stroke-opacity:0.19086523;stop-color:#000000;stop-opacity:1"
       d="m 192.14048,280.97902 c 0,0 18.11902,-27.34033 30.91443,-37.0988 8.05327,-6.14185 19.99419,-5.94442 27.64975,-12.57673 7.48605,-6.48545 7.7313,-19.64196 16.04351,-25.02452 8.22477,-5.32593 20.09632,-0.38996 29.06244,-4.33774 9.8379,-4.33162 24.96904,-20.68431 24.96904,-20.68431 l -2.3e-4,1.69892 c 0,0 -13.97654,14.36548 -23.47762,19.19257 -9.06023,4.60314 -21.7037,-0.51761 -30.29151,4.91836 -8.25131,5.22297 -8.18666,18.25418 -15.59419,24.62047 -7.92573,6.81167 -19.24566,6.5018 -27.73655,12.59233 -12.94276,9.28386 -31.53907,36.69945 -31.53907,36.69945 z"
       id="path102" />
    <path
       style="font-variation-settings:normal;opacity:1;vector-effect:none;fill:none;fill-opacity:1;stroke:#a6036d;stroke-width:0.264614px;stroke-linecap:butt;stroke-linejoin:miter;stroke-miterlimit:4;stroke-dasharray:none;stroke-dashoffset:0;stroke-opacity:0.19086523;stop-color:#000000;stop-opacity:1"
       d="m 192.66933,282.56785 c 0,0 18.11903,-27.34034 30.91444,-37.0988 8.05327,-6.14185 19.99419,-5.94441 27.64975,-12.57674 7.48604,-6.48545 7.7313,-19.64194 16.04351,-25.0245 8.22477,-5.32594 20.09632,-0.38998 29.06244,-4.33775 9.8379,-4.33163 24.96904,-20.68432 24.96904,-20.68432 l -2.3e-4,1.69893 c 0,0 -13.97655,14.36547 -23.47762,19.19256 -9.06023,4.60314 -21.7037,-0.51761 -30.29151,4.91836 -8.25131,5.22299 -8.18666,18.25418 -15.59419,24.62048 -7.92573,6.81167 -19.24566,6.50179 -27.73655,12.59232 -12.94276,9.28388 -31.53908,36.69946 -31.53908,36.69946 z"
       id="path104" />
    <path
       style="font-variation-settings:normal;opacity:1;vector-effect:none;fill:none;fill-opacity:1;stroke:#a6036d;stroke-width:0.264614px;stroke-linecap:butt;stroke-linejoin:miter;stroke-miterlimit:4;stroke-dasharray:none;stroke-dashoffset:0;stroke-opacity:0.19086523;stop-color:#000000;stop-opacity:1"
       d="m 193.19819,284.15667 c 0,0 18.11903,-27.34033 30.91444,-37.0988 8.05327,-6.14184 19.99418,-5.94441 27.64975,-12.57672 7.48604,-6.48547 7.73129,-19.64196 16.04351,-25.02452 8.22476,-5.32593 20.09631,-0.38998 29.06243,-4.33775 9.8379,-4.33161 24.96905,-20.68432 24.96905,-20.68432 l -2.3e-4,1.69893 c 0,0 -13.97655,14.36548 -23.47762,19.19258 -9.06023,4.60313 -21.7037,-0.51762 -30.29152,4.91835 -8.25131,5.22298 -8.18666,18.25417 -15.59418,24.62047 -7.92574,6.81168 -19.24566,6.50179 -27.73655,12.59232 -12.94277,9.28388 -31.53908,36.69946 -31.53908,36.69946 z"
       id="path106" />
    <path
       style="font-variation-settings:normal;opacity:1;vector-effect:none;fill:none;fill-opacity:1;stroke:#a6036d;stroke-width:0.264614px;stroke-linecap:butt;stroke-linejoin:miter;stroke-miterlimit:4;stroke-dasharray:none;stroke-dashoffset:0;stroke-opacity:0.19086523;stop-color:#000000;stop-opacity:1"
       d="m 193.72705,285.74551 c 0,0 18.11902,-27.34034 30.91444,-37.09881 8.05326,-6.14185 19.99418,-5.94442 27.64974,-12.57673 7.48605,-6.48545 7.7313,-19.64196 16.04352,-25.02452 8.22476,-5.32593 20.09631,-0.38996 29.06243,-4.33774 9.8379,-4.33162 24.96904,-20.68431 24.96904,-20.68431 l -2.3e-4,1.69892 c 0,0 -13.97654,14.36548 -23.47761,19.19257 -9.06023,4.60314 -21.70371,-0.51762 -30.29152,4.91836 -8.25131,5.22297 -8.18666,18.25418 -15.59419,24.62047 -7.92573,6.81167 -19.24565,6.5018 -27.73654,12.59232 -12.94277,9.28387 -31.53908,36.69947 -31.53908,36.69947 z"
       id="path108" />
    <path
       style="font-variation-settings:normal;opacity:1;vector-effect:none;fill:none;fill-opacity:1;stroke:#a6036d;stroke-width:0.264614px;stroke-linecap:butt;stroke-linejoin:miter;stroke-miterlimit:4;stroke-dasharray:none;stroke-dashoffset:0;stroke-opacity:0.19086523;stop-color:#000000;stop-opacity:1"
       d="m 193.72705,287.33433 c 0,0 18.11902,-27.34034 30.91444,-37.0988 8.05326,-6.14185 19.99418,-5.94442 27.64974,-12.57674 7.48605,-6.48545 7.7313,-19.64194 16.04352,-25.0245 8.22476,-5.32594 20.09631,-0.38998 29.06243,-4.33775 9.8379,-4.33163 24.96904,-20.68432 24.96904,-20.68432 l -2.3e-4,1.69893 c 0,0 -13.97654,14.36547 -23.47761,19.19256 -9.06023,4.60314 -21.70371,-0.51761 -30.29152,4.91836 -8.25131,5.22299 -8.18666,18.25418 -15.59419,24.62048 -7.92573,6.81167 -19.24565,6.50179 -27.73654,12.59232 -12.94277,9.28386 -31.53908,36.69946 -31.53908,36.69946 z"
       id="path110" />
    <path
       style="font-variation-settings:normal;opacity:1;vector-effect:none;fill:none;fill-opacity:1;stroke:#a6036d;stroke-width:0.264614px;stroke-linecap:butt;stroke-linejoin:miter;stroke-miterlimit:4;stroke-dasharray:none;stroke-dashoffset:0;stroke-opacity:0.19086523;stop-color:#000000;stop-opacity:1"
       d="m 167.81242,207.89564 c 0,0 18.11902,-27.34034 30.91444,-37.0988 8.05326,-6.14185 19.99418,-5.94442 27.64974,-12.57674 7.48605,-6.48545 7.7313,-19.64194 16.04352,-25.0245 8.22476,-5.32594 20.09631,-0.38998 29.06243,-4.33775 9.8379,-4.33163 24.96904,-20.68432 24.96904,-20.68432 l -2.3e-4,1.69893 c 0,0 -13.97654,14.36547 -23.47761,19.19256 -9.06024,4.60314 -21.70371,-0.51761 -30.29152,4.91836 -8.25131,5.22299 -8.18666,18.25418 -15.59419,24.62047 -7.92573,6.81168 -19.24566,6.5018 -27.73655,12.59233 -12.94276,9.28386 -31.53907,36.69946 -31.53907,36.69946 z"
       id="path2681" />
    <path
       style="font-variation-settings:normal;opacity:1;vector-effect:none;fill:none;fill-opacity:1;stroke:#a6036d;stroke-width:0.264614px;stroke-linecap:butt;stroke-linejoin:miter;stroke-miterlimit:4;stroke-dasharray:none;stroke-dashoffset:0;stroke-opacity:0.19086523;stop-color:#000000;stop-opacity:1"
       d="m 167.28325,206.30813 c 0,0 18.11902,-27.34034 30.91444,-37.0988 8.05326,-6.14185 19.99418,-5.94442 27.64974,-12.57674 7.48605,-6.48545 7.7313,-19.64194 16.04352,-25.0245 8.22476,-5.32594 20.09631,-0.38998 29.06243,-4.33775 9.8379,-4.33163 24.96904,-20.68432 24.96904,-20.68432 l -2.3e-4,1.69893 c 0,0 -13.97654,14.36547 -23.47761,19.19256 -9.06024,4.60314 -21.70371,-0.51761 -30.29152,4.91836 -8.25131,5.22299 -8.18666,18.25418 -15.59419,24.62047 -7.92573,6.81168 -19.24566,6.5018 -27.73655,12.59233 -12.94276,9.28386 -31.53907,36.69946 -31.53907,36.69946 z"
       id="path2683" />
    <path
       style="font-variation-settings:normal;opacity:1;vector-effect:none;fill:none;fill-opacity:1;stroke:#a6036d;stroke-width:0.264614px;stroke-linecap:butt;stroke-linejoin:miter;stroke-miterlimit:4;stroke-dasharray:none;stroke-dashoffset:0;stroke-opacity:0.19086523;stop-color:#000000;stop-opacity:1"
       d="m 166.75408,204.72062 c 0,0 18.11902,-27.34034 30.91444,-37.0988 8.05326,-6.14185 19.99418,-5.94442 27.64974,-12.57674 7.48605,-6.48545 7.7313,-19.64194 16.04352,-25.0245 8.22476,-5.32594 20.09631,-0.38998 29.06243,-4.33775 9.8379,-4.33163 24.96904,-20.68432 24.96904,-20.68432 l -2.3e-4,1.69893 c 0,0 -13.97654,14.36547 -23.47761,19.19256 -9.06024,4.60314 -21.70371,-0.51761 -30.29152,4.91836 -8.25131,5.22299 -8.18666,18.25418 -15.59419,24.62047 -7.92573,6.81168 -19.24566,6.5018 -27.73655,12.59233 -12.94276,9.28386 -31.53907,36.69946 -31.53907,36.69946 z"
       id="path2685" />
    <path
       style="font-variation-settings:normal;opacity:1;vector-effect:none;fill:none;fill-opacity:1;stroke:#a6036d;stroke-width:0.264614px;stroke-linecap:butt;stroke-linejoin:miter;stroke-miterlimit:4;stroke-dasharray:none;stroke-dashoffset:0;stroke-opacity:0.19086523;stop-color:#000000;stop-opacity:1"
       d="m 166.22491,203.13311 c 0,0 18.11902,-27.34034 30.91444,-37.0988 8.05326,-6.14185 19.99418,-5.94442 27.64974,-12.57674 7.48605,-6.48545 7.7313,-19.64194 16.04352,-25.0245 8.22476,-5.32594 20.09631,-0.38998 29.06243,-4.33775 9.8379,-4.33163 24.96904,-20.68432 24.96904,-20.68432 l -2.3e-4,1.69893 c 0,0 -13.97654,14.36547 -23.47761,19.19256 -9.06024,4.60314 -21.70371,-0.51761 -30.29152,4.91836 -8.25131,5.22299 -8.18666,18.25418 -15.59419,24.62047 -7.92573,6.81168 -19.24566,6.5018 -27.73655,12.59233 -12.94276,9.28386 -31.53907,36.69946 -31.53907,36.69946 z"
       id="path2687" />
    <path
       style="font-variation-settings:normal;opacity:1;vector-effect:none;fill:none;fill-opacity:1;stroke:#a6036d;stroke-width:0.264614px;stroke-linecap:butt;stroke-linejoin:miter;stroke-miterlimit:4;stroke-dasharray:none;stroke-dashoffset:0;stroke-opacity:0.19086523;stop-color:#000000;stop-opacity:1"
       d="m 165.69574,201.5456 c 0,0 18.11902,-27.34034 30.91444,-37.0988 8.05326,-6.14185 19.99418,-5.94442 27.64974,-12.57674 7.48605,-6.48545 7.7313,-19.64194 16.04352,-25.0245 8.22476,-5.32594 20.09631,-0.38998 29.06243,-4.33775 9.8379,-4.33163 24.96904,-20.68432 24.96904,-20.68432 l -2.3e-4,1.69893 c 0,0 -13.97654,14.36547 -23.47761,19.19256 -9.06024,4.60314 -21.70371,-0.51761 -30.29152,4.91836 -8.25131,5.22299 -8.18666,18.25418 -15.59419,24.62047 -7.92573,6.81168 -19.24566,6.5018 -27.73655,12.59233 -12.94276,9.28386 -31.53907,36.69946 -31.53907,36.69946 z"
       id="path2689" />
    <path
       style="font-variation-settings:normal;opacity:1;vector-effect:none;fill:none;fill-opacity:1;stroke:#a6036d;stroke-width:0.264614px;stroke-linecap:butt;stroke-linejoin:miter;stroke-miterlimit:4;stroke-dasharray:none;stroke-dashoffset:0;stroke-opacity:0.19086523;stop-color:#000000;stop-opacity:1"
       d="m 165.16657,199.95809 c 0,0 18.11902,-27.34034 30.91444,-37.0988 8.05326,-6.14185 19.99418,-5.94442 27.64974,-12.57674 7.48605,-6.48545 7.7313,-19.64194 16.04352,-25.0245 8.22476,-5.32594 20.09631,-0.38998 29.06243,-4.33775 9.8379,-4.33163 24.96904,-20.68432 24.96904,-20.68432 l -2.3e-4,1.69893 c 0,0 -13.97654,14.36547 -23.47761,19.19256 -9.06024,4.60314 -21.70371,-0.51761 -30.29152,4.91836 -8.25131,5.22299 -8.18666,18.25418 -15.59419,24.62047 -7.92573,6.81168 -19.24566,6.5018 -27.73655,12.59233 -12.94276,9.28386 -31.53907,36.69946 -31.53907,36.69946 z"
       id="path2691" />
    <path
       style="font-variation-settings:normal;opacity:1;vector-effect:none;fill:none;fill-opacity:1;stroke:#a6036d;stroke-width:0.264614px;stroke-linecap:butt;stroke-linejoin:miter;stroke-miterlimit:4;stroke-dasharray:none;stroke-dashoffset:0;stroke-opacity:0.19086523;stop-color:#000000;stop-opacity:1"
       d="m 164.6374,198.37058 c 0,0 18.11902,-27.34034 30.91444,-37.0988 8.05326,-6.14185 19.99418,-5.94442 27.64974,-12.57674 7.48605,-6.48545 7.7313,-19.64194 16.04352,-25.0245 8.22476,-5.32594 20.09631,-0.38998 29.06243,-4.33775 9.8379,-4.33163 24.96904,-20.684311 24.96904,-20.684311 l -2.3e-4,1.698921 c 0,0 -13.97654,14.36547 -23.47761,19.19256 -9.06024,4.60314 -21.70371,-0.51761 -30.29152,4.91836 -8.25131,5.22299 -8.18666,18.25418 -15.59419,24.62047 -7.92573,6.81168 -19.24566,6.5018 -27.73655,12.59233 -12.94276,9.28386 -31.53907,36.69946 -31.53907,36.69946 z"
       id="path2693" />
    <path
       style="font-variation-settings:normal;opacity:1;vector-effect:none;fill:none;fill-opacity:1;stroke:#a6036d;stroke-width:0.264614px;stroke-linecap:butt;stroke-linejoin:miter;stroke-miterlimit:4;stroke-dasharray:none;stroke-dashoffset:0;stroke-opacity:0.19086523;stop-color:#000000;stop-opacity:1"
       d="m 164.10823,196.78307 c 0,0 18.11902,-27.34034 30.91444,-37.0988 8.05326,-6.14185 19.99418,-5.94442 27.64974,-12.57674 7.48605,-6.48545 7.7313,-19.64194 16.04352,-25.0245 8.22476,-5.32594 20.09631,-0.38998 29.06243,-4.33775 9.8379,-4.33163 24.96904,-20.684302 24.96904,-20.684302 l -2.3e-4,1.698921 c 0,0 -13.97654,14.365461 -23.47761,19.192551 -9.06024,4.60314 -21.70371,-0.51761 -30.29152,4.91836 -8.25131,5.22299 -8.18666,18.25418 -15.59419,24.62047 -7.92573,6.81168 -19.24566,6.5018 -27.73655,12.59233 -12.94276,9.28386 -31.53907,36.69946 -31.53907,36.69946 z"
       id="path2695" />
    <path
       style="font-variation-settings:normal;opacity:1;vector-effect:none;fill:none;fill-opacity:1;stroke:#a6036d;stroke-width:0.264614px;stroke-linecap:butt;stroke-linejoin:miter;stroke-miterlimit:4;stroke-dasharray:none;stroke-dashoffset:0;stroke-opacity:0.19086523;stop-color:#000000;stop-opacity:1"
       d="m 163.57906,195.19556 c 0,0 18.11902,-27.34034 30.91444,-37.0988 8.05326,-6.14185 19.99418,-5.94442 27.64974,-12.57674 7.48605,-6.48545 7.7313,-19.64194 16.04352,-25.0245 8.22476,-5.32594 20.09631,-0.38998 29.06243,-4.33775 9.8379,-4.33163 24.96904,-20.684293 24.96904,-20.684293 l -2.3e-4,1.698921 c 0,0 -13.97654,14.365452 -23.47761,19.192542 -9.06024,4.60314 -21.70371,-0.51761 -30.29152,4.91836 -8.25131,5.22299 -8.18666,18.25418 -15.59419,24.62047 -7.92573,6.81168 -19.24566,6.5018 -27.73655,12.59233 -12.94276,9.28386 -31.53907,36.69946 -31.53907,36.69946 z"
       id="path2697" />
    <path
       style="font-variation-settings:normal;opacity:1;vector-effect:none;fill:none;fill-opacity:1;stroke:#a6036d;stroke-width:0.264614px;stroke-linecap:butt;stroke-linejoin:miter;stroke-miterlimit:4;stroke-dasharray:none;stroke-dashoffset:0;stroke-opacity:0.19086523;stop-color:#000000;stop-opacity:1"
       d="m 163.04989,193.60805 c 0,0 18.11902,-27.34034 30.91444,-37.0988 8.05326,-6.14185 19.99418,-5.94442 27.64974,-12.57674 7.48605,-6.48545 7.7313,-19.64194 16.04352,-25.0245 8.22476,-5.32594 20.09631,-0.38998 29.06243,-4.33775 9.8379,-4.33163 24.96904,-20.684284 24.96904,-20.684284 l -2.3e-4,1.698921 c 0,0 -13.97654,14.365443 -23.47761,19.192533 -9.06024,4.60314 -21.70371,-0.51761 -30.29152,4.91836 -8.25131,5.22299 -8.18666,18.25418 -15.59419,24.62047 -7.92573,6.81168 -19.24566,6.5018 -27.73655,12.59233 -12.94276,9.28386 -31.53907,36.69946 -31.53907,36.69946 z"
       id="path2699" />
    <path
       style="font-variation-settings:normal;opacity:1;vector-effect:none;fill:none;fill-opacity:1;stroke:#a6036d;stroke-width:0.264614px;stroke-linecap:butt;stroke-linejoin:miter;stroke-miterlimit:4;stroke-dasharray:none;stroke-dashoffset:0;stroke-opacity:0.19086523;stop-color:#000000;stop-opacity:1"
       d="m 162.52072,192.02054 c 0,0 18.11902,-27.34034 30.91444,-37.0988 8.05326,-6.14185 19.99418,-5.94442 27.64974,-12.57674 7.48605,-6.48545 7.7313,-19.64194 16.04352,-25.0245 8.22476,-5.32594 20.09631,-0.38998 29.06243,-4.33775 9.8379,-4.33163 24.96904,-20.684275 24.96904,-20.684275 l -2.3e-4,1.698921 c 0,0 -13.97654,14.365434 -23.47761,19.192524 -9.06024,4.60314 -21.70371,-0.51761 -30.29152,4.91836 -8.25131,5.22299 -8.18666,18.25418 -15.59419,24.62047 -7.92573,6.81168 -19.24566,6.5018 -27.73655,12.59233 -12.94276,9.28386 -31.53907,36.69946 -31.53907,36.69946 z"
       id="path2701" />
    <path
       style="font-variation-settings:normal;opacity:1;vector-effect:none;fill:none;fill-opacity:1;stroke:#a6036d;stroke-width:0.264614px;stroke-linecap:butt;stroke-linejoin:miter;stroke-miterlimit:4;stroke-dasharray:none;stroke-dashoffset:0;stroke-opacity:0.19086523;stop-color:#000000;stop-opacity:1"
       d="m 161.99155,190.43303 c 0,0 18.11902,-27.34034 30.91444,-37.0988 8.05326,-6.14185 19.99418,-5.94442 27.64974,-12.57674 7.48605,-6.48545 7.7313,-19.64194 16.04352,-25.0245 8.22476,-5.32594 20.09631,-0.38998 29.06243,-4.33775 9.8379,-4.33163 24.96904,-20.684266 24.96904,-20.684266 l -2.3e-4,1.698921 c 0,0 -13.97654,14.365425 -23.47761,19.192515 -9.06024,4.60314 -21.70371,-0.51761 -30.29152,4.91836 -8.25131,5.22299 -8.18666,18.25418 -15.59419,24.62047 -7.92573,6.81168 -19.24566,6.5018 -27.73655,12.59233 -12.94276,9.28386 -31.53907,36.69946 -31.53907,36.69946 z"
       id="path2703" />
    <path
       style="font-variation-settings:normal;opacity:1;vector-effect:none;fill:none;fill-opacity:1;stroke:#a6036d;stroke-width:0.264614px;stroke-linecap:butt;stroke-linejoin:miter;stroke-miterlimit:4;stroke-dasharray:none;stroke-dashoffset:0;stroke-opacity:0.19086523;stop-color:#000000;stop-opacity:1"
       d="m 161.46238,188.84552 c 0,0 18.11902,-27.34034 30.91444,-37.0988 8.05326,-6.14185 19.99418,-5.94442 27.64974,-12.57674 7.48605,-6.48545 7.7313,-19.64194 16.04352,-25.0245 8.22476,-5.32594 20.09631,-0.38998 29.06243,-4.33775 9.8379,-4.33163 24.96904,-20.684257 24.96904,-20.684257 l -2.3e-4,1.698921 c 0,0 -13.97654,14.365416 -23.47761,19.192506 -9.06024,4.60314 -21.70371,-0.51761 -30.29152,4.91836 -8.25131,5.22299 -8.18666,18.25418 -15.59419,24.62047 -7.92573,6.81168 -19.24566,6.5018 -27.73655,12.59233 -12.94276,9.28386 -31.53907,36.69946 -31.53907,36.69946 z"
       id="path2705" />
    <path
       style="font-variation-settings:normal;opacity:1;vector-effect:none;fill:none;fill-opacity:1;stroke:#a6036d;stroke-width:0.264614px;stroke-linecap:butt;stroke-linejoin:miter;stroke-miterlimit:4;stroke-dasharray:none;stroke-dashoffset:0;stroke-opacity:0.19086523;stop-color:#000000;stop-opacity:1"
       d="m 160.93321,187.25801 c 0,0 18.11902,-27.34034 30.91444,-37.0988 8.05326,-6.14185 19.99418,-5.94442 27.64974,-12.57674 7.48605,-6.48545 7.7313,-19.64194 16.04352,-25.0245 8.22476,-5.32594 20.09631,-0.38998 29.06243,-4.33775 9.8379,-4.33163 24.96904,-20.684248 24.96904,-20.684248 l -2.3e-4,1.698921 c 0,0 -13.97654,14.365407 -23.47761,19.192497 -9.06024,4.60314 -21.70371,-0.51761 -30.29152,4.91836 -8.25131,5.22299 -8.18666,18.25418 -15.59419,24.62047 -7.92573,6.81168 -19.24566,6.5018 -27.73655,12.59233 -12.94276,9.28386 -31.53907,36.69946 -31.53907,36.69946 z"
       id="path2707" />
    <path
       style="font-variation-settings:normal;opacity:1;vector-effect:none;fill:none;fill-opacity:1;stroke:#a6036d;stroke-width:0.264614px;stroke-linecap:butt;stroke-linejoin:miter;stroke-miterlimit:4;stroke-dasharray:none;stroke-dashoffset:0;stroke-opacity:0.19086523;stop-color:#000000;stop-opacity:1"
       d="m 160.40404,185.6705 c 0,0 18.11902,-27.34034 30.91444,-37.0988 8.05326,-6.14185 19.99418,-5.94442 27.64974,-12.57674 7.48605,-6.48545 7.7313,-19.64194 16.04352,-25.0245 8.22476,-5.32594 20.09631,-0.38998 29.06243,-4.33775 9.8379,-4.33163 24.96904,-20.684239 24.96904,-20.684239 l -2.3e-4,1.698921 c 0,0 -13.97654,14.365398 -23.47761,19.192488 -9.06024,4.60314 -21.70371,-0.51761 -30.29152,4.91836 -8.25131,5.22299 -8.18666,18.25418 -15.59419,24.62047 -7.92573,6.81168 -19.24566,6.5018 -27.73655,12.59233 -12.94276,9.28386 -31.53907,36.69946 -31.53907,36.69946 z"
       id="path2709" />
    <path
       style="font-variation-settings:normal;opacity:1;vector-effect:none;fill:none;fill-opacity:1;stroke:#a6036d;stroke-width:0.264614px;stroke-linecap:butt;stroke-linejoin:miter;stroke-miterlimit:4;stroke-dasharray:none;stroke-dashoffset:0;stroke-opacity:0.19086523;stop-color:#000000;stop-opacity:1"
       d="m 159.87487,184.08299 c 0,0 18.11902,-27.34034 30.91444,-37.0988 8.05326,-6.14185 19.99418,-5.94442 27.64974,-12.57674 7.48605,-6.48545 7.7313,-19.64194 16.04352,-25.0245 8.22476,-5.32594 20.09631,-0.38998 29.06243,-4.33775 9.8379,-4.33163 24.96904,-20.68423 24.96904,-20.68423 l -2.3e-4,1.698921 c 0,0 -13.97654,14.365389 -23.47761,19.192479 -9.06024,4.60314 -21.70371,-0.51761 -30.29152,4.91836 -8.25131,5.22299 -8.18666,18.25418 -15.59419,24.62047 -7.92573,6.81168 -19.24566,6.5018 -27.73655,12.59233 -12.94276,9.28386 -31.53907,36.69946 -31.53907,36.69946 z"
       id="path2711" />
    <path
       style="font-variation-settings:normal;opacity:1;vector-effect:none;fill:none;fill-opacity:1;stroke:#a6036d;stroke-width:0.264614px;stroke-linecap:butt;stroke-linejoin:miter;stroke-miterlimit:4;stroke-dasharray:none;stroke-dashoffset:0;stroke-opacity:0.19086523;stop-color:#000000;stop-opacity:1"
       d="m 159.3457,182.49548 c 0,0 18.11902,-27.34034 30.91444,-37.0988 8.05326,-6.14185 19.99418,-5.94442 27.64974,-12.57674 7.48605,-6.48545 7.7313,-19.64194 16.04352,-25.0245 8.22476,-5.32594 20.09631,-0.38998 29.06243,-4.33775 9.8379,-4.331624 24.96904,-20.684221 24.96904,-20.684221 l -2.3e-4,1.698921 c 0,0 -13.97654,14.365389 -23.47761,19.19247 -9.06024,4.60314 -21.70371,-0.51761 -30.29152,4.91836 -8.25131,5.22299 -8.18666,18.25418 -15.59419,24.62047 -7.92573,6.81168 -19.24566,6.5018 -27.73655,12.59233 -12.94276,9.28386 -31.53907,36.69946 -31.53907,36.69946 z"
       id="path2713" />
    <path
       style="font-variation-settings:normal;opacity:1;vector-effect:none;fill:none;fill-opacity:1;stroke:#a6036d;stroke-width:0.264614px;stroke-linecap:butt;stroke-linejoin:miter;stroke-miterlimit:4;stroke-dasharray:none;stroke-dashoffset:0;stroke-opacity:0.19086523;stop-color:#000000;stop-opacity:1"
       d="m 158.81653,180.90797 c 0,0 18.11902,-27.34034 30.91444,-37.0988 8.05326,-6.14185 19.99418,-5.94442 27.64974,-12.57674 7.48605,-6.48545 7.7313,-19.64194 16.04352,-25.0245 8.22476,-5.32594 20.09631,-0.38998 29.06243,-4.33775 9.8379,-4.331615 24.96904,-20.684212 24.96904,-20.684212 l -2.3e-4,1.698921 c 0,0 -13.97654,14.365389 -23.47761,19.192461 -9.06024,4.60314 -21.70371,-0.51761 -30.29152,4.91836 -8.25131,5.22299 -8.18666,18.25418 -15.59419,24.62047 -7.92573,6.81168 -19.24566,6.5018 -27.73655,12.59233 -12.94276,9.28386 -31.53907,36.69946 -31.53907,36.69946 z"
       id="path2715" />
    <path
       style="font-variation-settings:normal;opacity:1;vector-effect:none;fill:none;fill-opacity:1;stroke:#a6036d;stroke-width:0.264614px;stroke-linecap:butt;stroke-linejoin:miter;stroke-miterlimit:4;stroke-dasharray:none;stroke-dashoffset:0;stroke-opacity:0.19086523;stop-color:#000000;stop-opacity:1"
       d="m 158.28736,179.32046 c 0,0 18.11902,-27.34034 30.91444,-37.0988 8.05326,-6.14185 19.99418,-5.94442 27.64974,-12.57674 7.48605,-6.48545 7.7313,-19.64194 16.04352,-25.0245 8.22476,-5.325934 20.09631,-0.38998 29.06243,-4.33775 9.8379,-4.331606 24.96904,-20.684203 24.96904,-20.684203 l -2.3e-4,1.698921 c 0,0 -13.97654,14.365389 -23.47761,19.192452 -9.06024,4.60314 -21.70371,-0.517607 -30.29152,4.91836 -8.25131,5.22299 -8.18666,18.25418 -15.59419,24.62047 -7.92573,6.81168 -19.24566,6.5018 -27.73655,12.59233 -12.94276,9.28386 -31.53907,36.69946 -31.53907,36.69946 z"
       id="path2717" />
    <path
       style="font-variation-settings:normal;opacity:1;vector-effect:none;fill:none;fill-opacity:1;stroke:#a6036d;stroke-width:0.264614px;stroke-linecap:butt;stroke-linejoin:miter;stroke-miterlimit:4;stroke-dasharray:none;stroke-dashoffset:0;stroke-opacity:0.19086523;stop-color:#000000;stop-opacity:1"
       d="m 157.75819,177.73295 c 0,0 18.11902,-27.34034 30.91444,-37.0988 8.05326,-6.14185 19.99418,-5.94442 27.64974,-12.57674 7.48605,-6.48545 7.7313,-19.64194 16.04352,-25.0245 8.22476,-5.325925 20.09631,-0.38998 29.06243,-4.337741 9.8379,-4.331606 24.96904,-20.684203 24.96904,-20.684203 l -2.3e-4,1.698921 c 0,0 -13.97654,14.365389 -23.47761,19.192452 -9.06024,4.603131 -21.70371,-0.517607 -30.29152,4.918351 -8.25131,5.22299 -8.18666,18.25418 -15.59419,24.62047 -7.92573,6.81168 -19.24566,6.5018 -27.73655,12.59233 -12.94276,9.28386 -31.53907,36.69946 -31.53907,36.69946 z"
       id="path2719" />
    <path
       style="font-variation-settings:normal;opacity:1;vector-effect:none;fill:none;fill-opacity:1;stroke:#a6036d;stroke-width:0.264614px;stroke-linecap:butt;stroke-linejoin:miter;stroke-miterlimit:4;stroke-dasharray:none;stroke-dashoffset:0;stroke-opacity:0.19086523;stop-color:#000000;stop-opacity:1"
       d="m 157.22902,176.14544 c 0,0 18.11902,-27.34034 30.91444,-37.0988 8.05326,-6.14185 19.99418,-5.94442 27.64974,-12.57674 7.48605,-6.48545 7.7313,-19.64194 16.04352,-25.0245 8.22476,-5.325916 20.09631,-0.38998 29.06243,-4.337732 9.8379,-4.331606 24.96904,-20.684203 24.96904,-20.684203 l -2.3e-4,1.698921 c 0,0 -13.97654,14.365389 -23.47761,19.192452 -9.06024,4.603122 -21.70371,-0.517607 -30.29152,4.918342 -8.25131,5.22299 -8.18666,18.25418 -15.59419,24.62047 -7.92573,6.81168 -19.24566,6.5018 -27.73655,12.59233 -12.94276,9.28386 -31.53907,36.69946 -31.53907,36.69946 z"
       id="path2721" />
    <path
       style="font-variation-settings:normal;opacity:1;vector-effect:none;fill:none;fill-opacity:1;stroke:#a6036d;stroke-width:0.264614px;stroke-linecap:butt;stroke-linejoin:miter;stroke-miterlimit:4;stroke-dasharray:none;stroke-dashoffset:0;stroke-opacity:0.19086523;stop-color:#000000;stop-opacity:1"
       d="m 156.69985,174.55793 c 0,0 18.11902,-27.34034 30.91444,-37.0988 8.05326,-6.14185 19.99418,-5.94442 27.64974,-12.57674 7.48605,-6.48545 7.7313,-19.64194 16.04352,-25.024497 8.22476,-5.32591 20.09631,-0.389977 29.06243,-4.337726 9.8379,-4.331606 24.96904,-20.684203 24.96904,-20.684203 l -2.3e-4,1.698921 c 0,0 -13.97654,14.365389 -23.47761,19.192452 -9.06024,4.603113 -21.70371,-0.517607 -30.29152,4.918333 -8.25131,5.22299 -8.18666,18.25418 -15.59419,24.62047 -7.92573,6.81168 -19.24566,6.5018 -27.73655,12.59233 -12.94276,9.28386 -31.53907,36.69946 -31.53907,36.69946 z"
       id="path2723" />
    <path
       style="font-variation-settings:normal;opacity:1;vector-effect:none;fill:none;fill-opacity:1;stroke:#a6036d;stroke-width:0.264614px;stroke-linecap:butt;stroke-linejoin:miter;stroke-miterlimit:4;stroke-dasharray:none;stroke-dashoffset:0;stroke-opacity:0.19086523;stop-color:#000000;stop-opacity:1"
       d="m 156.17068,172.97042 c 0,0 18.11902,-27.34034 30.91444,-37.0988 8.05326,-6.14185 19.99418,-5.94442 27.64974,-12.57674 7.48605,-6.48545 7.7313,-19.64194 16.04352,-25.024488 8.22476,-5.32591 20.09631,-0.389977 29.06243,-4.337726 9.8379,-4.331606 24.96904,-20.684203 24.96904,-20.684203 l -2.3e-4,1.698921 c 0,0 -13.97654,14.365389 -23.47761,19.192452 -9.06024,4.603113 -21.70371,-0.517607 -30.29152,4.91833 -8.25131,5.222984 -8.18666,18.254174 -15.59419,24.620464 -7.92573,6.81168 -19.24566,6.5018 -27.73655,12.59233 -12.94276,9.28386 -31.53907,36.69946 -31.53907,36.69946 z"
       id="path2725" />
    <path
       style="font-variation-settings:normal;opacity:1;vector-effect:none;fill:none;fill-opacity:1;stroke:#a6036d;stroke-width:0.264614px;stroke-linecap:butt;stroke-linejoin:miter;stroke-miterlimit:4;stroke-dasharray:none;stroke-dashoffset:0;stroke-opacity:0.19086523;stop-color:#000000;stop-opacity:1"
       d="m 155.64151,171.38291 c 0,0 18.11902,-27.34034 30.91444,-37.0988 8.05326,-6.14185 19.99418,-5.94442 27.64974,-12.57674 7.48605,-6.48545 7.7313,-19.64194 16.04352,-25.024479 8.22476,-5.32591 20.09631,-0.389977 29.06243,-4.337726 9.8379,-4.331606 24.96904,-20.684203 24.96904,-20.684203 l -2.3e-4,1.698921 c 0,0 -13.97654,14.365389 -23.47761,19.192452 -9.06024,4.603113 -21.70371,-0.517607 -30.29152,4.91833 -8.25131,5.222975 -8.18666,18.254165 -15.59419,24.620455 -7.92573,6.81168 -19.24566,6.5018 -27.73655,12.59233 -12.94276,9.28386 -31.53907,36.69946 -31.53907,36.69946 z"
       id="path2727" />
    <path
       style="font-variation-settings:normal;opacity:1;vector-effect:none;fill:none;fill-opacity:1;stroke:#a6036d;stroke-width:0.264614px;stroke-linecap:butt;stroke-linejoin:miter;stroke-miterlimit:4;stroke-dasharray:none;stroke-dashoffset:0;stroke-opacity:0.19086523;stop-color:#000000;stop-opacity:1"
       d="m 155.11234,169.7954 c 0,0 18.11902,-27.34034 30.91444,-37.0988 8.05326,-6.14185 19.99418,-5.94442 27.64974,-12.57674 7.48605,-6.48545 7.7313,-19.64194 16.04352,-25.02447 8.22476,-5.32591 20.09631,-0.389977 29.06243,-4.337726 9.8379,-4.331606 24.96904,-20.684203 24.96904,-20.684203 l -2.3e-4,1.698921 c 0,0 -13.97654,14.365389 -23.47761,19.192452 -9.06024,4.603113 -21.70371,-0.517607 -30.29152,4.91833 -8.25131,5.222966 -8.18666,18.254156 -15.59419,24.620446 -7.92573,6.81168 -19.24566,6.5018 -27.73655,12.59233 -12.94276,9.28386 -31.53907,36.69946 -31.53907,36.69946 z"
       id="path2729" />
    <path
       style="font-variation-settings:normal;opacity:1;vector-effect:none;fill:none;fill-opacity:1;stroke:#a6036d;stroke-width:0.264614px;stroke-linecap:butt;stroke-linejoin:miter;stroke-miterlimit:4;stroke-dasharray:none;stroke-dashoffset:0;stroke-opacity:0.19086523;stop-color:#000000;stop-opacity:1"
       d="m 154.58317,168.20789 c 0,0 18.11902,-27.34034 30.91444,-37.0988 8.05326,-6.14185 19.99418,-5.94442 27.64974,-12.57674 7.48605,-6.48545 7.7313,-19.641931 16.04352,-25.024461 8.22476,-5.32591 20.09631,-0.389977 29.06243,-4.337726 9.8379,-4.331606 24.96904,-20.684203 24.96904,-20.684203 l -2.3e-4,1.698921 c 0,0 -13.97654,14.365389 -23.47761,19.192452 -9.06024,4.603113 -21.70371,-0.517607 -30.29152,4.91833 -8.25131,5.22296 -8.18666,18.254147 -15.59419,24.620437 -7.92573,6.81168 -19.24566,6.5018 -27.73655,12.59233 -12.94276,9.28386 -31.53907,36.69946 -31.53907,36.69946 z"
       id="path2731" />
    <path
       style="font-variation-settings:normal;opacity:1;vector-effect:none;fill:none;fill-opacity:1;stroke:#a6036d;stroke-width:0.264614px;stroke-linecap:butt;stroke-linejoin:miter;stroke-miterlimit:4;stroke-dasharray:none;stroke-dashoffset:0;stroke-opacity:0.19086523;stop-color:#000000;stop-opacity:1"
       d="m 154.054,166.62038 c 0,0 18.11902,-27.34034 30.91444,-37.0988 8.05326,-6.14185 19.99418,-5.94442 27.64974,-12.57674 7.48605,-6.48545 7.7313,-19.641922 16.04352,-25.024452 8.22476,-5.32591 20.09631,-0.389977 29.06243,-4.337726 9.8379,-4.331606 24.96904,-20.684203 24.96904,-20.684203 l -2.3e-4,1.698921 c 0,0 -13.97654,14.365389 -23.47761,19.192452 -9.06024,4.603113 -21.70371,-0.517607 -30.29152,4.91833 -8.25131,5.22296 -8.18666,18.254138 -15.59419,24.620428 -7.92573,6.81168 -19.24566,6.5018 -27.73655,12.59233 -12.94276,9.28386 -31.53907,36.69946 -31.53907,36.69946 z"
       id="path2733" />
    <path
       style="font-variation-settings:normal;opacity:1;vector-effect:none;fill:none;fill-opacity:1;stroke:#a6036d;stroke-width:0.264614px;stroke-linecap:butt;stroke-linejoin:miter;stroke-miterlimit:4;stroke-dasharray:none;stroke-dashoffset:0;stroke-opacity:0.19086523;stop-color:#000000;stop-opacity:1"
       d="m 153.52483,165.03287 c 0,0 18.11902,-27.34034 30.91444,-37.0988 8.05326,-6.14185 19.99418,-5.94442 27.64974,-12.57674 7.48605,-6.48545 7.7313,-19.641913 16.04352,-25.024443 8.22476,-5.32591 20.09631,-0.389977 29.06243,-4.337726 9.8379,-4.331606 24.96904,-20.684203 24.96904,-20.684203 l -2.3e-4,1.698921 c 0,0 -13.97654,14.365389 -23.47761,19.192452 -9.06024,4.603113 -21.70371,-0.517607 -30.29152,4.91833 -8.25131,5.22296 -8.18666,18.254129 -15.59419,24.620419 -7.92573,6.81168 -19.24566,6.5018 -27.73655,12.59233 -12.94276,9.28386 -31.53907,36.69946 -31.53907,36.69946 z"
       id="path2735" />
    <path
       style="font-variation-settings:normal;opacity:1;vector-effect:none;fill:none;fill-opacity:1;stroke:#a6036d;stroke-width:0.264614px;stroke-linecap:butt;stroke-linejoin:miter;stroke-miterlimit:4;stroke-dasharray:none;stroke-dashoffset:0;stroke-opacity:0.19086523;stop-color:#000000;stop-opacity:1"
       d="m 152.99566,163.44536 c 0,0 18.11902,-27.34034 30.91444,-37.0988 8.05326,-6.14185 19.99418,-5.94442 27.64974,-12.57674 7.48605,-6.48545 7.7313,-19.641904 16.04352,-25.024434 8.22476,-5.32591 20.09631,-0.389977 29.06243,-4.337726 9.8379,-4.331606 24.96904,-20.684203 24.96904,-20.684203 l -2.3e-4,1.698921 c 0,0 -13.97654,14.365389 -23.47761,19.192452 -9.06024,4.603113 -21.70371,-0.517607 -30.29152,4.91833 -8.25131,5.22296 -8.18666,18.25412 -15.59419,24.62041 -7.92573,6.81168 -19.24566,6.5018 -27.73655,12.59233 -12.94276,9.28386 -31.53907,36.69946 -31.53907,36.69946 z"
       id="path2737" />
    <path
       style="font-variation-settings:normal;opacity:1;vector-effect:none;fill:none;fill-opacity:1;stroke:#a6036d;stroke-width:0.264614px;stroke-linecap:butt;stroke-linejoin:miter;stroke-miterlimit:4;stroke-dasharray:none;stroke-dashoffset:0;stroke-opacity:0.19086523;stop-color:#000000;stop-opacity:1"
       d="m 152.46649,161.85785 c 0,0 18.11902,-27.34034 30.91444,-37.0988 8.05326,-6.14185 19.99418,-5.94442 27.64974,-12.57674 7.48605,-6.48545 7.7313,-19.641895 16.04352,-25.024425 8.22476,-5.32591 20.09631,-0.389977 29.06243,-4.337726 9.8379,-4.331606 24.96904,-20.684203 24.96904,-20.684203 l -2.3e-4,1.698921 c 0,0 -13.97654,14.365389 -23.47761,19.192452 -9.06024,4.603113 -21.70371,-0.517607 -30.29152,4.91833 -8.25131,5.22296 -8.18666,18.254111 -15.59419,24.620401 -7.92573,6.81168 -19.24566,6.5018 -27.73655,12.59233 -12.94276,9.28386 -31.53907,36.69946 -31.53907,36.69946 z"
       id="path2739" />
    <path
       style="font-variation-settings:normal;opacity:1;vector-effect:none;fill:none;fill-opacity:1;stroke:#a6036d;stroke-width:0.264614px;stroke-linecap:butt;stroke-linejoin:miter;stroke-miterlimit:4;stroke-dasharray:none;stroke-dashoffset:0;stroke-opacity:0.19086523;stop-color:#000000;stop-opacity:1"
       d="m 151.93732,160.27034 c 0,0 18.11902,-27.34034 30.91444,-37.0988 8.05326,-6.14185 19.99418,-5.94442 27.64974,-12.57674 7.48605,-6.48545 7.7313,-19.641886 16.04352,-25.024416 8.22476,-5.32591 20.09631,-0.389977 29.06243,-4.337726 9.8379,-4.331606 24.96904,-20.684203 24.96904,-20.684203 l -2.3e-4,1.698921 c 0,0 -13.97654,14.365389 -23.47761,19.192452 -9.06024,4.603113 -21.70371,-0.517607 -30.29152,4.91833 -8.25131,5.22296 -8.18666,18.254102 -15.59419,24.620392 -7.92573,6.81168 -19.24566,6.5018 -27.73655,12.59233 -12.94276,9.28386 -31.53907,36.69946 -31.53907,36.69946 z"
       id="path2741" />
    <path
       style="font-variation-settings:normal;opacity:1;vector-effect:none;fill:none;fill-opacity:1;stroke:#a6036d;stroke-width:0.264614px;stroke-linecap:butt;stroke-linejoin:miter;stroke-miterlimit:4;stroke-dasharray:none;stroke-dashoffset:0;stroke-opacity:0.19086523;stop-color:#000000;stop-opacity:1"
       d="m 151.40815,158.68283 c 0,0 18.11902,-27.34034 30.91444,-37.0988 8.05326,-6.14185 19.99418,-5.94442 27.64974,-12.57674 7.48605,-6.48545 7.7313,-19.641877 16.04352,-25.024407 8.22476,-5.32591 20.09631,-0.389977 29.06243,-4.337726 9.8379,-4.331606 24.96904,-20.684203 24.96904,-20.684203 l -2.3e-4,1.698921 c 0,0 -13.97654,14.365389 -23.47761,19.192452 -9.06024,4.603113 -21.70371,-0.517607 -30.29152,4.91833 -8.25131,5.22296 -8.18666,18.254093 -15.59419,24.620383 -7.92573,6.81168 -19.24566,6.5018 -27.73655,12.59233 -12.94276,9.28386 -31.53907,36.69946 -31.53907,36.69946 z"
       id="path2743" />
    <path
       style="font-variation-settings:normal;opacity:1;vector-effect:none;fill:none;fill-opacity:1;stroke:#a6036d;stroke-width:0.264614px;stroke-linecap:butt;stroke-linejoin:miter;stroke-miterlimit:4;stroke-dasharray:none;stroke-dashoffset:0;stroke-opacity:0.19086523;stop-color:#000000;stop-opacity:1"
       d="m 150.87898,157.09532 c 0,0 18.11902,-27.34034 30.91444,-37.0988 8.05326,-6.14185 19.99418,-5.94442 27.64974,-12.57674 7.48605,-6.48545 7.7313,-19.641868 16.04352,-25.024398 8.22476,-5.32591 20.09631,-0.389977 29.06243,-4.337726 9.8379,-4.331606 24.96904,-20.684203 24.96904,-20.684203 l -2.3e-4,1.698921 c 0,0 -13.97654,14.365389 -23.47761,19.192452 -9.06024,4.603113 -21.70371,-0.517607 -30.29152,4.91833 -8.25131,5.22296 -8.18666,18.254084 -15.59419,24.620374 -7.92573,6.81168 -19.24566,6.5018 -27.73655,12.59233 -12.94276,9.28386 -31.53907,36.69946 -31.53907,36.69946 z"
       id="path2745" />
    <path
       style="font-variation-settings:normal;opacity:1;vector-effect:none;fill:none;fill-opacity:1;stroke:#a6036d;stroke-width:0.264614px;stroke-linecap:butt;stroke-linejoin:miter;stroke-miterlimit:4;stroke-dasharray:none;stroke-dashoffset:0;stroke-opacity:0.19086523;stop-color:#000000;stop-opacity:1"
       d="m 150.34981,155.50781 c 0,0 18.11902,-27.34034 30.91444,-37.0988 8.05326,-6.14185 19.99418,-5.94442 27.64974,-12.57674 7.48605,-6.485444 7.7313,-19.641859 16.04352,-25.024389 8.22476,-5.32591 20.09631,-0.389977 29.06243,-4.337726 9.8379,-4.331606 24.96904,-20.684203 24.96904,-20.684203 l -2.3e-4,1.698921 c 0,0 -13.97654,14.365389 -23.47761,19.192452 -9.06024,4.603113 -21.70371,-0.517607 -30.29152,4.91833 -8.25131,5.22296 -8.18666,18.254078 -15.59419,24.620365 -7.92573,6.81168 -19.24566,6.5018 -27.73655,12.59233 -12.94276,9.28386 -31.53907,36.69946 -31.53907,36.69946 z"
       id="path2747" />
    <path
       style="font-variation-settings:normal;opacity:1;vector-effect:none;fill:none;fill-opacity:1;stroke:#a6036d;stroke-width:0.264614px;stroke-linecap:butt;stroke-linejoin:miter;stroke-miterlimit:4;stroke-dasharray:none;stroke-dashoffset:0;stroke-opacity:0.19086523;stop-color:#000000;stop-opacity:1"
       d="m 149.82064,153.9203 c 0,0 18.11902,-27.34034 30.91444,-37.0988 8.05326,-6.14185 19.99418,-5.94442 27.64974,-12.57674 7.48605,-6.485435 7.7313,-19.64185 16.04352,-25.02438 8.22476,-5.32591 20.09631,-0.389977 29.06243,-4.337726 9.8379,-4.331606 24.96904,-20.684203 24.96904,-20.684203 l -2.3e-4,1.698921 c 0,0 -13.97654,14.365389 -23.47761,19.192452 -9.06024,4.603113 -21.70371,-0.517607 -30.29152,4.91833 -8.25131,5.22296 -8.18666,18.254078 -15.59419,24.620356 -7.92573,6.81168 -19.24566,6.5018 -27.73655,12.59233 -12.94276,9.28386 -31.53907,36.69946 -31.53907,36.69946 z"
       id="path2749" />
    <path
       style="font-variation-settings:normal;opacity:1;vector-effect:none;fill:none;fill-opacity:1;stroke:#a6036d;stroke-width:0.264614px;stroke-linecap:butt;stroke-linejoin:miter;stroke-miterlimit:4;stroke-dasharray:none;stroke-dashoffset:0;stroke-opacity:0.19086523;stop-color:#000000;stop-opacity:1"
       d="m 149.29147,152.33279 c 0,0 18.11902,-27.34034 30.91444,-37.0988 8.05326,-6.14185 19.99418,-5.94442 27.64974,-12.57674 7.48605,-6.485426 7.7313,-19.641841 16.04352,-25.024371 8.22476,-5.32591 20.09631,-0.389977 29.06243,-4.337726 9.8379,-4.331606 24.96904,-20.684203 24.96904,-20.684203 l -2.3e-4,1.698921 c 0,0 -13.97654,14.365389 -23.47761,19.192452 -9.06024,4.603113 -21.70371,-0.517607 -30.29152,4.91833 -8.25131,5.22296 -8.18666,18.254078 -15.59419,24.620347 -7.92573,6.81168 -19.24566,6.5018 -27.73655,12.59233 -12.94276,9.28386 -31.53907,36.69946 -31.53907,36.69946 z"
       id="path2751" />
  </g>
</svg>
